<?xml version="1.0" standalone="no"?>
<!DOCTYPE svg PUBLIC "-//W3C//DTD SVG 20010904//EN"
 "http://www.w3.org/TR/2001/REC-SVG-20010904/DTD/svg10.dtd">
<svg version="1.0" xmlns="http://www.w3.org/2000/svg"
 width="512.000000pt" height="512.000000pt" viewBox="0 0 512.000000 512.000000"
 preserveAspectRatio="xMidYMid meet">
<metadata>
Created by potrace 1.14, written by Peter Selinger 2001-2017
</metadata>
<g transform="translate(0.000000,512.000000) scale(0.100000,-0.100000)"
fill="#000000" stroke="none">
<path d="M2615 5069 c-4 -6 -5 -12 -2 -15 2 -3 7 2 10 11 7 17 1 20 -8 4z"/>
<path d="M2570 5036 c7 -7 13 -7 20 0 6 6 3 10 -10 10 -13 0 -16 -4 -10 -10z"/>
<path d="M2633 5015 c0 -8 4 -12 9 -9 5 3 6 10 3 15 -9 13 -12 11 -12 -6z"/>
<path d="M2497 5006 c-4 -10 -3 -15 3 -11 11 7 14 -8 3 -19 -4 -4 -16 3 -26
16 -16 19 -16 17 2 -13 11 -20 18 -39 14 -42 -3 -4 -2 -7 4 -7 17 0 23 13 12
26 -8 9 -5 16 12 24 17 10 20 9 14 -1 -6 -8 -4 -10 5 -4 9 5 11 4 6 -3 -5 -8
-1 -10 11 -6 14 4 15 3 4 -4 -8 -6 -9 -12 -3 -16 6 -3 13 -2 16 3 8 13 -4 42
-14 36 -5 -3 -11 -1 -14 4 -3 5 6 12 20 15 15 4 24 9 21 13 -3 3 -20 -2 -36
-10 -28 -14 -32 -14 -39 0 -8 13 -10 13 -15 -1z"/>
<path d="M2601 5007 c0 -10 -5 -16 -10 -12 -6 3 -8 -5 -6 -17 3 -13 1 -29 -4
-36 -7 -12 -12 -12 -30 -1 -11 8 -21 17 -21 21 0 5 -5 8 -11 8 -8 0 -8 -4 1
-14 9 -12 4 -20 -29 -44 -22 -16 -37 -32 -34 -36 3 -3 2 -6 -3 -6 -6 0 -15 5
-22 12 -9 9 -13 7 -18 -5 -3 -9 -11 -14 -17 -10 -6 4 -8 0 -5 -9 4 -8 0 -15
-7 -15 -10 0 -11 5 -4 19 5 10 14 18 20 18 6 0 4 7 -5 15 -18 19 -33 20 -17 2
11 -14 5 -27 -11 -27 -5 0 -6 5 -3 10 3 6 1 10 -4 10 -14 0 -14 -17 -1 -25 6
-4 8 -11 5 -16 -4 -5 1 -12 9 -15 9 -3 16 -11 16 -16 0 -6 -6 -5 -15 2 -8 6
-19 9 -24 6 -6 -4 -8 2 -6 15 2 12 1 19 -2 15 -4 -4 -8 -16 -10 -27 -2 -15 1
-20 11 -16 8 3 20 -1 27 -9 10 -12 10 -15 -2 -12 -8 2 -13 -3 -11 -10 1 -8 -2
-11 -7 -7 -13 7 -28 -23 -26 -52 2 -15 -3 -20 -15 -18 -18 3 -42 -8 -41 -19 3
-19 0 -26 -10 -26 -8 0 -8 5 1 15 9 10 9 15 1 15 -8 0 -8 6 1 20 9 14 14 16
20 7 6 -9 8 -8 8 3 0 13 2 13 11 0 9 -13 10 -12 5 3 -3 10 -2 16 2 13 5 -3 9
1 9 8 0 8 -6 12 -14 9 -12 -5 -18 8 -14 30 1 5 -3 6 -9 2 -7 -4 -7 -12 0 -25
13 -23 13 -33 1 -25 -11 6 -37 -34 -33 -49 2 -4 -5 -14 -14 -20 -14 -11 -14
-13 0 -25 9 -8 16 -9 16 -3 0 6 -5 13 -10 15 -6 3 -5 4 2 3 7 -1 14 -12 14
-24 1 -20 0 -20 -26 -7 -27 14 -28 14 -17 -10 7 -14 14 -19 18 -13 4 6 6 0 6
-14 -2 -22 -5 -24 -19 -17 -10 5 -18 12 -18 15 0 3 4 2 10 -1 6 -3 7 1 4 9 -3
9 -10 16 -16 16 -5 0 -6 -5 -3 -10 3 -6 -1 -13 -9 -16 -18 -7 -18 -64 -1 -76
6 -5 6 -8 -1 -8 -6 0 -18 8 -25 17 -8 9 -9 14 -3 10 6 -3 11 0 11 8 0 8 -4 15
-9 15 -5 0 -6 5 -2 12 4 7 3 8 -4 4 -6 -4 -8 -14 -5 -23 5 -12 3 -14 -7 -8 -8
5 -4 -6 9 -23 20 -29 21 -60 1 -47 -5 3 -13 -2 -18 -11 -8 -14 -9 -12 -9 11 0
15 2 23 6 19 9 -13 31 -16 31 -4 0 5 -7 10 -16 10 -9 0 -12 5 -8 13 6 9 5 9
-7 0 -17 -14 -25 -88 -9 -78 6 3 10 1 10 -4 0 -17 -11 -13 -39 12 -18 15 -21
16 -11 3 14 -18 13 -18 -10 -12 -21 6 -22 5 -7 -4 9 -6 21 -9 26 -6 5 3 12 -1
15 -10 4 -12 1 -14 -14 -9 -11 4 -20 2 -20 -4 0 -5 8 -12 18 -14 9 -3 6 -4 -8
-3 -14 1 -30 5 -36 8 -13 9 -14 -64 0 -74 6 -4 4 -14 -7 -26 -9 -10 -14 -23
-10 -27 5 -5 1 -4 -8 3 -12 9 -18 9 -27 0 -7 -7 -12 -8 -12 -2 0 6 5 15 10 20
7 7 6 11 -4 11 -8 0 -15 -3 -14 -6 2 -21 -4 -32 -15 -28 -8 3 -14 0 -14 -7 0
-6 8 -12 18 -12 10 0 15 5 12 11 -4 5 -3 7 2 3 4 -4 14 -3 22 3 8 7 13 8 13 1
0 -9 -19 -21 -42 -27 -5 -2 -11 -4 -15 -5 -5 -1 -12 -2 -16 -1 -4 1 -1 -10 8
-23 14 -22 14 -25 0 -40 -9 -9 -22 -16 -28 -16 -7 0 -6 4 3 10 9 6 10 10 3 10
-25 0 -23 -21 4 -46 27 -26 27 -26 3 -14 -14 7 -28 18 -32 24 -4 6 -8 -1 -8
-16 0 -15 -5 -30 -12 -34 -6 -4 -8 -3 -5 3 4 6 0 16 -7 22 -10 9 -16 9 -21 1
-4 -6 -1 -9 6 -8 7 2 13 -4 14 -12 0 -9 9 -14 23 -13 12 2 22 -2 22 -8 0 -5
-4 -8 -8 -5 -14 8 -53 -24 -50 -41 2 -9 -5 -17 -15 -19 -15 -2 -16 0 -6 12 6
8 8 14 3 14 -5 0 -2 5 6 10 11 7 11 10 2 10 -7 0 -10 5 -6 11 5 8 9 8 14 -1 4
-7 10 -8 13 -3 3 5 -4 15 -16 22 -12 8 -19 10 -15 6 4 -5 3 -14 -3 -22 -6 -7
-8 -13 -3 -13 4 0 -1 -7 -12 -15 -19 -15 -19 -15 1 -8 17 6 18 5 7 -10 -14
-17 -46 -12 -35 6 3 6 1 7 -5 3 -16 -10 -16 -11 14 -31 15 -9 23 -12 20 -6 -5
7 -1 8 9 4 13 -4 14 -8 4 -14 -10 -6 -10 -11 2 -26 13 -16 12 -17 -3 -5 -10 8
-19 9 -22 3 -4 -5 2 -14 11 -20 10 -6 13 -11 6 -11 -6 0 -15 5 -18 10 -4 7
-12 7 -18 2 -15 -10 -27 -10 -47 3 -13 8 -13 7 0 -10 14 -17 13 -17 -10 -11
-19 6 -21 5 -10 -3 14 -10 13 -12 -9 -15 -5 0 -12 -4 -16 -8 -4 -3 0 -5 9 -4
8 1 19 5 22 9 4 4 12 7 18 7 6 0 5 -5 -2 -12 -18 -18 -14 -32 5 -17 15 12 16
12 8 -1 -6 -8 -10 -18 -10 -22 0 -3 -3 -9 -8 -12 -4 -3 -5 -3 -2 1 6 8 -35 37
-42 29 -4 -3 -1 -6 4 -6 6 0 10 -11 9 -25 -3 -21 0 -24 21 -21 14 3 21 1 17
-5 -3 -6 -8 -8 -11 -5 -3 3 -14 1 -24 -5 -15 -8 -17 -14 -9 -29 7 -13 7 -21
-2 -26 -7 -4 -8 -3 -4 4 4 7 2 12 -4 12 -6 0 -9 4 -6 8 2 4 -4 13 -15 20 -11
7 -19 8 -19 2 0 -5 5 -10 12 -10 6 0 8 -3 5 -7 -4 -3 0 -17 9 -31 11 -17 12
-22 3 -16 -25 16 -46 14 -24 -2 19 -14 19 -15 -2 -11 -13 2 -26 7 -30 12 -5 4
-2 5 4 1 9 -5 11 -2 6 10 -5 14 -3 16 11 11 9 -4 15 -3 11 2 -9 16 -45 8 -63
-14 -17 -20 -17 -20 4 -2 21 17 22 17 22 -7 0 -15 -5 -23 -11 -19 -6 3 -7 1
-3 -6 4 -6 11 -9 16 -6 4 3 11 -2 14 -11 3 -8 10 -13 15 -9 5 3 12 1 15 -4 8
-12 -30 -3 -65 15 -12 7 -18 -25 -7 -32 6 -4 8 -3 4 4 -7 12 20 10 31 -3 4 -4
3 -5 -3 -2 -7 4 -17 0 -23 -7 -10 -11 -8 -17 6 -26 15 -9 15 -11 1 -6 -22 6
-40 -16 -32 -40 5 -16 4 -16 -5 -4 -10 14 -12 13 -15 -9 0 -6 -8 -16 -16 -23
-12 -11 -12 -11 -2 3 10 14 9 18 -5 23 -10 4 -19 2 -21 -3 -2 -6 -9 -8 -15 -5
-7 3 1 -6 16 -20 15 -14 23 -26 17 -26 -6 0 -9 -4 -6 -8 3 -5 -1 -9 -9 -9 -7
0 -12 8 -10 19 2 10 0 16 -6 13 -5 -4 -9 -2 -9 4 0 11 -25 9 -37 -3 -4 -4 -3
-7 2 -6 25 5 33 -2 37 -33 2 -21 -1 -34 -8 -34 -6 0 -11 9 -10 20 1 11 -6 22
-14 24 -13 4 -13 3 0 -6 8 -6 11 -11 5 -12 -24 -2 -47 -8 -53 -14 -4 -3 9 -3
27 0 30 5 33 4 21 -9 -7 -9 -16 -13 -21 -10 -5 3 -8 0 -7 -8 2 -7 -4 -12 -14
-10 -20 3 -33 -14 -17 -24 8 -4 9 -3 5 4 -9 16 7 15 22 0 9 -9 15 -9 24 0 9 9
9 12 -1 12 -7 0 -9 5 -5 11 4 8 10 6 17 -6 11 -20 -8 -38 -31 -30 -10 3 -12
-2 -7 -18 5 -19 4 -19 -5 -5 -6 9 -17 15 -24 12 -12 -5 -11 -9 2 -23 9 -10 21
-16 26 -13 5 3 6 0 2 -7 -4 -6 -11 -9 -16 -6 -5 3 -11 1 -15 -5 -3 -5 -1 -10
4 -10 6 0 11 -5 11 -11 0 -8 -4 -8 -12 -1 -9 7 -22 6 -43 -2 -25 -10 -26 -13
-12 -19 10 -4 16 -3 13 1 -2 4 4 9 15 9 10 1 19 -3 19 -9 0 -6 -3 -9 -6 -5 -4
3 -13 0 -21 -8 -13 -13 -16 -13 -29 0 -19 18 -31 20 -16 3 6 -7 11 -17 12 -23
1 -5 4 -12 7 -15 4 -3 4 0 0 5 -3 6 2 11 12 11 10 0 18 -6 18 -13 0 -7 -4 -10
-9 -7 -5 3 -16 0 -25 -8 -9 -7 -14 -8 -10 -2 4 7 0 15 -9 18 -9 3 -12 11 -8
18 4 7 3 10 -1 5 -5 -4 -10 -18 -12 -30 -2 -17 -1 -19 7 -7 8 12 10 10 10 -9
0 -17 -4 -22 -16 -17 -8 3 -12 2 -9 -4 3 -6 2 -10 -2 -10 -5 0 -18 -7 -29 -15
-19 -15 -19 -15 0 -8 19 6 19 6 0 -19 -12 -16 -22 -22 -26 -15 -4 6 -4 15 -1
21 3 5 1 6 -5 3 -7 -5 -7 -16 1 -36 6 -17 14 -28 18 -25 4 2 6 -4 5 -13 -3
-19 -26 -31 -26 -13 0 6 6 8 13 4 6 -4 8 -3 4 1 -13 15 -35 14 -33 -1 1 -7 11
-24 22 -37 10 -13 4 -8 -14 10 -32 33 -55 46 -32 18 16 -19 5 -35 -21 -30 -17
3 -19 1 -9 -10 9 -10 7 -16 -7 -24 -10 -6 -12 -11 -5 -11 19 0 27 4 24 13 -1
4 7 3 18 -3 25 -13 26 -22 3 -13 -16 6 -17 5 -3 -13 14 -17 14 -18 -2 -6 -10
8 -19 9 -22 3 -3 -5 0 -11 6 -14 10 -4 10 -7 0 -18 -7 -8 -12 -9 -11 -4 4 19
-13 45 -30 45 -14 -1 -14 -2 2 -11 9 -5 17 -15 17 -21 0 -9 -3 -9 -12 0 -7 7
-16 12 -21 12 -11 0 30 -34 53 -44 9 -3 6 -4 -7 -2 -21 4 -49 -15 -38 -26 3
-3 -4 -5 -15 -4 -11 0 -24 7 -29 14 -7 11 -9 10 -14 -3 -5 -11 -3 -14 5 -9 8
5 9 2 5 -9 -3 -9 1 -23 9 -32 9 -8 11 -15 5 -15 -6 0 -10 -6 -9 -12 2 -8 -6
-12 -22 -11 -24 3 -24 2 -6 -12 18 -14 12 -20 -16 -16 -4 0 -6 -8 -5 -19 1
-23 8 -25 27 -7 8 6 6 2 -5 -11 -11 -13 -21 -19 -23 -13 -2 6 -7 9 -10 7 -4
-2 -8 9 -8 25 -1 16 2 26 7 23 5 -3 9 0 9 5 0 16 -18 13 -27 -4 -12 -21 -4
-92 8 -74 7 11 9 11 9 1 0 -8 5 -10 13 -6 7 4 9 3 4 -2 -5 -5 -12 -9 -15 -9
-4 0 -13 -4 -21 -9 -9 -6 -12 -5 -8 1 4 6 -1 21 -11 33 -15 18 -19 19 -19 7 0
-9 5 -13 10 -10 5 3 8 0 5 -8 -3 -8 -14 -14 -25 -14 -12 0 -24 -3 -28 -6 -3
-4 8 -5 25 -4 20 2 34 -3 37 -11 4 -12 8 -12 21 -2 13 11 14 11 7 -1 -6 -11
-4 -13 11 -8 16 6 17 5 4 -5 -9 -7 -15 -25 -15 -40 1 -15 -2 -25 -6 -22 -4 2
-9 -1 -11 -8 -3 -9 -6 -9 -12 0 -4 7 -2 12 3 12 6 0 11 5 11 11 0 5 -5 7 -12
3 -7 -4 -8 -3 -4 5 4 6 12 8 18 5 6 -4 9 -1 6 7 -3 8 -10 14 -15 14 -6 0 -15
4 -20 9 -5 5 -2 6 7 1 12 -6 13 -5 3 5 -7 8 -16 11 -20 7 -4 -4 -1 -13 5 -19
16 -16 15 -28 -2 -28 -22 0 -28 -17 -12 -33 8 -8 13 -17 10 -20 -3 -2 2 -7 10
-10 11 -4 13 -1 9 11 -3 9 4 4 14 -13 19 -29 12 -52 -10 -38 -5 3 -8 0 -5 -8
5 -16 30 -19 40 -5 9 13 38 16 38 4 0 -6 -7 -7 -16 -4 -13 5 -15 2 -11 -14 4
-16 2 -18 -13 -10 -9 5 -20 7 -23 4 -3 -3 -17 2 -31 11 -24 16 -26 16 -20 1 3
-9 10 -14 14 -11 5 3 11 1 14 -4 4 -5 -2 -12 -11 -14 -17 -4 -17 -5 0 -6 9 0
17 -6 17 -12 0 -5 -6 -7 -12 -3 -7 4 -9 3 -5 -1 4 -5 14 -10 22 -11 11 -2 12
2 6 15 -8 13 -5 17 12 18 12 0 16 -1 10 -4 -7 -3 -13 -9 -13 -14 0 -6 7 -6 18
0 14 7 19 6 19 -4 0 -7 -5 -11 -12 -9 -6 3 -11 -6 -11 -20 0 -15 5 -22 12 -19
14 5 14 -34 -1 -56 -5 -9 -4 -12 3 -7 6 3 13 2 17 -4 3 -5 0 -10 -7 -11 -7 0
-3 -5 10 -11 22 -11 25 -35 4 -31 -6 2 -9 -4 -5 -13 3 -9 9 -12 12 -7 12 17
40 13 51 -7 7 -13 7 -20 1 -20 -16 0 -33 -38 -21 -45 6 -4 10 -3 9 2 -3 19 2
33 12 33 5 0 8 -4 5 -8 -3 -5 1 -9 9 -9 8 0 11 5 8 11 -10 15 -11 46 -2 51 4
3 6 -6 5 -20 -4 -34 16 -50 46 -35 l23 11 -23 -18 c-18 -15 -20 -21 -10 -31 7
-7 8 -12 2 -12 -6 0 -16 10 -22 22 -6 13 -11 18 -11 11 -1 -7 -8 -10 -18 -7
-15 5 -15 4 -3 -4 8 -6 18 -8 24 -5 5 4 7 -1 3 -11 -4 -9 -3 -15 2 -11 5 3 11
-1 14 -7 3 -10 8 -9 22 2 11 9 16 10 11 3 -7 -12 5 -18 27 -14 4 1 2 -9 -5
-21 -7 -13 -11 -27 -10 -31 1 -5 -2 -6 -8 -2 -6 3 -7 12 -4 18 4 8 2 7 -7 -1
-12 -11 -12 -14 0 -21 17 -11 43 -3 35 10 -3 5 0 9 5 9 16 0 14 -11 -7 -34
l-17 -20 30 19 c28 17 29 17 15 0 -14 -17 -13 -17 10 -10 14 4 22 4 17 0 -4
-5 -17 -9 -30 -10 -15 -1 -21 -7 -19 -20 2 -12 -1 -15 -10 -9 -8 4 -10 3 -5
-2 5 -5 14 -9 20 -9 7 -1 11 -6 9 -13 -1 -9 6 -7 23 4 28 18 33 13 9 -10 -8
-9 -11 -16 -5 -16 6 0 9 -6 7 -12 -1 -7 -1 -10 1 -6 3 5 11 8 19 8 9 0 12 5 9
10 -4 6 -11 7 -17 4 -7 -5 -8 -2 -3 5 5 9 11 9 17 3 6 -6 18 -8 27 -5 9 4 5
-3 -8 -14 -19 -15 -22 -23 -14 -37 12 -21 23 -22 35 -4 6 10 8 8 6 -6 -2 -13
6 -25 22 -33 19 -10 21 -13 7 -13 -15 0 -17 -6 -14 -29 3 -17 0 -32 -6 -35 -7
-3 -6 -5 3 -5 34 3 41 -2 38 -23 -1 -13 2 -25 6 -28 14 -8 15 43 1 57 -7 7
-15 10 -19 8 -3 -3 -4 -2 -1 2 3 3 0 12 -6 19 -7 9 -6 14 3 20 7 4 10 4 6 -1
-4 -4 5 -21 21 -36 16 -15 26 -30 23 -34 -10 -10 -10 -85 0 -85 5 0 6 -6 2
-12 -4 -7 -4 -10 1 -6 9 8 65 -22 65 -35 0 -4 -4 -5 -10 -2 -5 3 -10 1 -10 -5
0 -7 7 -9 16 -6 9 3 18 6 20 6 3 0 2 4 -1 10 -3 5 0 7 9 4 12 -5 10 -11 -12
-31 l-27 -25 27 16 c26 15 28 15 38 -4 6 -11 16 -17 22 -14 7 5 8 2 2 -7 -15
-25 -13 -38 11 -61 12 -12 21 -28 18 -35 -3 -8 -1 -13 5 -11 5 2 10 -1 10 -6
0 -5 6 -13 14 -18 10 -8 10 -9 -2 -5 -8 2 -14 11 -12 18 2 9 -3 8 -16 -4 -10
-9 -22 -14 -27 -10 -4 5 -5 2 -1 -5 6 -10 11 -10 21 -2 9 8 15 8 20 0 3 -5 1
-10 -4 -10 -6 0 -3 -8 8 -19 10 -10 20 -24 23 -31 3 -10 9 -10 27 -1 17 10 26
10 35 1 8 -8 6 -10 -9 -5 -18 6 -18 5 3 -13 14 -13 20 -26 15 -38 -4 -12 -3
-15 6 -10 8 5 6 -4 -4 -25 -10 -19 -14 -31 -10 -26 5 4 19 -3 32 -15 20 -18
27 -20 43 -11 15 10 21 9 32 -5 11 -15 11 -15 -3 -5 -16 13 -29 8 -29 -9 0 -5
4 -6 10 -3 6 3 7 -1 4 -9 -4 -10 3 -20 20 -28 15 -6 25 -17 22 -24 -7 -19 5
-25 23 -11 14 10 14 10 3 -4 -13 -18 -6 -53 9 -43 5 3 9 2 8 -3 -4 -21 2 -24
19 -12 15 12 16 12 4 -2 -7 -9 -10 -24 -6 -33 5 -13 10 -14 27 -4 12 6 19 7
15 3 -4 -5 -2 -15 4 -24 10 -13 10 -14 -2 -4 -19 17 -35 17 -21 0 8 -10 7 -14
-4 -14 -7 0 -13 5 -12 11 1 6 -4 10 -10 9 -13 -3 -17 9 -14 36 2 8 -2 10 -10
5 -8 -4 -10 -3 -5 5 4 6 0 14 -8 17 -9 3 -13 11 -9 17 3 6 1 7 -5 3 -8 -5 -10
-1 -6 11 5 15 4 16 -5 3 -9 -12 -11 -10 -7 12 4 22 1 26 -12 21 -11 -5 -12 -8
-3 -11 9 -3 8 -11 -5 -30 -9 -15 -11 -22 -4 -15 14 13 39 -3 35 -22 -1 -5 0
-7 2 -2 13 22 23 3 24 -47 0 -10 3 -16 6 -12 3 3 17 -4 31 -15 17 -13 29 -16
36 -9 5 5 14 10 19 10 5 0 -1 -9 -14 -21 l-24 -20 23 6 c16 5 22 2 22 -10 0
-9 4 -14 8 -11 4 2 9 -7 10 -22 1 -15 7 -29 12 -30 6 -2 16 -10 24 -17 7 -8
16 -12 18 -9 5 4 4 -17 -1 -50 0 -5 -8 -3 -16 4 -10 9 -15 9 -15 1 0 -6 4 -11
9 -11 5 0 11 -10 15 -22 5 -19 8 -21 16 -8 5 8 10 20 10 25 0 6 -5 3 -10 -5
-5 -8 -10 -10 -10 -4 0 6 8 18 17 25 14 12 16 12 8 0 -6 -11 -4 -13 8 -8 16 6
16 4 2 -16 -13 -21 -13 -26 2 -47 16 -22 16 -23 -2 -17 -15 6 -16 5 -5 -8 7
-8 19 -15 26 -15 13 0 19 -13 15 -33 -1 -5 4 -5 10 -1 9 5 10 2 6 -9 -3 -9 -2
-19 4 -22 5 -4 6 -11 3 -17 -4 -6 -2 -8 4 -4 5 3 12 1 14 -6 3 -7 7 -5 11 6 5
11 3 15 -5 10 -7 -5 -8 -3 -3 6 6 9 4 11 -6 5 -8 -5 -11 -4 -6 0 4 5 0 19 -8
31 -11 17 -12 25 -3 30 7 5 8 3 3 -6 -6 -10 -4 -12 7 -7 12 4 14 1 10 -15 -4
-16 -2 -19 8 -13 8 5 11 4 6 -3 -3 -6 -2 -13 4 -17 6 -4 8 -10 6 -14 -3 -4 -7
-20 -10 -35 -4 -23 -3 -26 10 -16 16 14 19 24 4 15 -6 -4 -7 1 -3 11 4 11 8
13 11 6 2 -7 9 -9 15 -6 8 5 8 2 0 -7 -19 -20 -16 -34 4 -18 11 10 14 10 9 1
-4 -7 -2 -12 4 -12 6 0 8 -5 4 -11 -4 -8 -9 -7 -15 2 -6 10 -9 10 -9 2 0 -20
20 -26 37 -11 14 11 16 11 8 -1 -6 -11 -4 -13 8 -8 9 3 19 2 22 -3 3 -4 -6 -7
-20 -5 -16 1 -25 -3 -25 -12 0 -8 3 -12 8 -10 4 3 16 0 27 -4 18 -9 18 -9 -2
-5 -13 2 -26 0 -29 -5 -5 -8 17 -14 39 -10 5 1 6 -3 3 -8 -8 -12 18 -33 29
-23 4 4 2 -3 -4 -16 -14 -26 -23 -29 -15 -4 5 14 4 14 -4 3 -11 -16 9 -55 28
-57 6 -1 13 -2 17 -3 4 0 -2 -8 -13 -16 -16 -13 -16 -14 -1 -9 13 5 16 2 11
-12 -5 -15 -4 -16 5 -4 5 8 13 11 17 7 4 -3 1 -15 -7 -24 -13 -17 -13 -17 5
-3 18 14 19 13 14 -2 -4 -10 -1 -19 8 -22 8 -3 14 -13 14 -21 0 -9 -4 -13 -10
-10 -5 3 -10 1 -10 -4 0 -14 13 -14 28 1 9 9 8 16 -5 30 -9 10 -13 18 -8 18
19 0 33 -35 23 -54 -8 -15 -8 -21 1 -24 6 -2 9 -8 6 -13 -4 -5 2 -6 12 -2 16
6 17 5 3 -13 -14 -17 -14 -18 2 -6 14 11 18 10 26 -4 9 -17 39 -10 42 10 3 16
-24 25 -39 13 -12 -10 -13 -9 -6 3 4 8 5 12 0 8 -4 -4 -16 -3 -27 3 -16 8 -17
13 -7 25 13 16 33 14 35 -4 3 -26 5 -26 20 -2 14 23 14 23 9 3 -4 -13 -2 -23
4 -23 6 0 26 -14 45 -31 l36 -31 29 21 c38 27 54 27 46 0 -6 -18 -5 -19 13 -8
19 12 19 14 4 35 -10 12 -20 20 -24 18 -4 -2 -9 0 -12 5 -13 20 24 4 42 -19
13 -16 21 -20 26 -12 4 7 2 12 -3 12 -6 0 -11 5 -11 12 0 9 3 9 12 0 19 -19
32 -14 17 6 -7 9 -10 14 -5 10 5 -4 15 0 23 8 9 9 23 12 35 8 15 -5 19 -3 13
7 -6 10 -5 11 3 4 13 -12 4 -58 -9 -49 -5 3 -7 9 -4 14 10 17 -17 22 -33 6
-11 -10 -12 -16 -4 -16 7 0 14 1 15 3 2 1 11 -4 20 -11 14 -12 18 -9 33 26 12
30 20 39 32 35 9 -3 3 5 -14 18 -25 20 -29 27 -18 36 10 10 14 10 18 0 3 -8 9
-7 19 5 8 10 17 15 20 11 4 -3 7 -4 7 -1 0 3 -8 12 -17 19 -9 8 -14 9 -11 4 4
-6 2 -17 -4 -25 -8 -12 -9 -12 -4 2 3 10 -2 22 -12 27 -11 7 -12 11 -4 11 8 0
10 5 6 13 -5 8 -2 8 9 -2 15 -12 17 -11 18 3 1 9 2 20 3 26 0 5 11 17 24 26
13 9 21 22 19 28 -4 9 2 11 17 9 12 -3 27 1 33 9 11 12 13 18 13 36 0 4 4 1 9
-7 6 -9 9 -7 10 10 1 21 4 43 10 82 0 5 6 5 11 2 10 -6 14 7 11 31 -1 7 6 14
14 18 9 3 13 10 10 16 -5 9 14 15 37 11 4 0 4 7 1 16 -4 10 -2 14 4 10 6 -4
16 0 23 8 7 8 17 12 24 8 6 -4 5 1 -2 10 -12 14 -12 19 1 32 17 17 31 20 22 5
-3 -6 1 -7 9 -4 9 3 16 10 16 16 0 5 -4 7 -9 4 -17 -11 -39 18 -31 39 7 16 9
17 9 3 1 -9 5 -19 9 -22 5 -3 8 10 7 29 -2 19 1 32 6 29 5 -3 7 -9 4 -14 -7
-12 5 -40 17 -40 6 0 5 7 -2 16 -11 12 -10 18 4 32 17 16 18 16 11 -5 -4 -14
-2 -23 4 -23 6 0 10 3 10 7 -4 26 2 43 14 37 8 -5 7 -2 -2 10 -13 15 -12 17
14 12 26 -5 26 -4 11 13 -15 16 -15 19 4 36 23 21 18 35 -10 28 -17 -5 -18 -8
-8 -22 12 -14 11 -14 -4 -2 -20 15 -15 31 8 31 9 0 12 5 8 11 -4 7 2 6 17 -1
l24 -13 -20 23 c-11 12 -20 25 -20 29 0 3 -4 5 -8 3 -5 -1 -6 2 -2 8 5 8 11 7
21 -1 13 -11 18 -6 15 14 -1 5 3 6 9 2 5 -3 11 -1 11 4 1 6 3 16 4 21 1 6 3
18 4 28 2 15 3 14 11 -3 7 -18 8 -19 15 -2 4 9 12 17 17 17 7 0 6 -5 -1 -13
-6 -8 -7 -18 -3 -22 4 -5 2 -5 -4 -2 -7 4 -18 -1 -25 -10 -12 -14 -12 -16 1
-9 8 4 7 1 -3 -7 -10 -9 -18 -19 -18 -24 1 -4 -3 -8 -8 -8 -5 0 -13 -3 -17 -8
-4 -4 0 -7 9 -7 10 0 17 -4 17 -10 0 -5 5 -10 11 -10 8 0 8 4 0 14 -10 12 -7
18 16 30 15 8 22 15 14 16 -11 0 -11 3 -1 14 6 8 19 12 28 10 15 -5 14 -4 -1
6 -9 6 -15 16 -11 22 4 7 10 5 16 -3 8 -11 9 -10 4 3 -3 10 2 22 12 28 10 7
13 13 6 16 -6 3 -20 11 -30 19 -13 11 -14 13 -3 10 24 -9 45 21 29 40 -23 27
2 16 27 -12 13 -16 23 -23 22 -18 -4 23 2 36 13 29 6 -4 8 -3 4 4 -3 6 -2 13
4 17 6 4 8 11 4 16 -3 5 -10 7 -15 3 -5 -3 -6 -10 -3 -16 5 -7 2 -8 -6 -3 -9
6 -11 4 -5 -5 6 -9 4 -11 -5 -5 -9 6 -11 4 -5 -5 5 -9 4 -11 -4 -6 -6 4 -9 11
-6 16 3 4 -1 11 -7 14 -7 3 -4 4 7 3 13 -1 20 4 19 15 -1 14 3 15 24 7 22 -9
23 -8 12 6 -10 12 -10 19 -2 27 7 7 12 17 12 22 0 6 -5 5 -12 -2 -7 -7 -16
-12 -22 -12 -5 0 -1 6 9 14 11 8 24 12 28 9 5 -3 6 5 2 18 -6 21 -4 20 14 -6
18 -26 20 -27 18 -7 -1 12 -5 22 -9 22 -3 0 -6 9 -5 20 1 10 3 17 5 15 2 -2
16 7 30 20 21 20 23 26 13 39 -17 21 -4 21 16 0 14 -13 14 -17 2 -26 -12 -8
-12 -9 1 -5 8 2 16 10 16 18 3 31 5 33 13 21 7 -11 9 -10 14 3 4 9 3 13 -3 10
-6 -3 -10 -3 -10 0 0 11 53 50 63 47 5 -1 6 2 3 7 -4 5 0 12 6 15 7 3 1 3 -14
1 -22 -3 -26 0 -21 13 6 15 5 15 -11 3 -16 -14 -16 -16 -2 -27 14 -10 15 -13
1 -24 -8 -7 -15 -9 -15 -6 0 4 -6 1 -14 -6 -8 -7 -12 -16 -10 -20 2 -4 -1 -10
-7 -14 -7 -4 -9 -3 -5 4 3 5 0 13 -6 15 -10 4 -10 6 0 6 6 1 12 6 12 12 0 5
-5 7 -12 3 -7 -4 -8 -3 -4 4 4 6 14 8 23 5 11 -4 14 -3 9 5 -5 8 -1 10 11 5
15 -6 16 -4 6 9 -11 12 -9 18 7 33 11 10 20 14 20 9 0 -16 43 60 44 79 1 9 4
17 9 17 14 -1 62 28 80 48 11 11 25 18 33 15 8 -3 14 0 14 6 0 6 -3 10 -7 10
-5 -1 -15 -1 -23 0 -13 1 -13 2 0 11 17 11 20 30 7 47 -5 7 -5 19 1 29 6 11
11 13 16 5 4 -6 2 -11 -3 -11 -6 0 -11 -5 -11 -11 0 -8 4 -8 13 0 10 8 17 7
25 -1 7 -7 12 -9 12 -5 0 5 -11 18 -25 31 l-25 24 26 -1 c18 0 22 -2 13 -8
-11 -7 -10 -9 5 -9 12 0 16 5 12 15 -6 17 20 34 47 29 11 -1 16 1 12 4 -10 10
-49 9 -57 -2 -3 -5 -15 -11 -25 -12 -14 -2 -12 2 8 19 19 16 26 29 23 47 -3
21 -2 22 7 7 6 -10 15 -14 22 -10 7 4 6 0 -2 -10 -9 -11 -10 -17 -2 -17 6 0
11 5 11 11 0 5 4 8 9 5 5 -4 4 5 -2 19 -7 14 -16 25 -22 25 -5 0 0 6 11 14 27
19 82 27 87 13 3 -7 5 -2 4 9 -1 14 -7 21 -17 19 -8 -2 -15 -4 -15 -5 0 -1
-11 -3 -24 -4 -23 -3 -23 -2 -5 11 10 8 18 22 16 31 -3 16 -3 16 10 0 13 -17
61 -19 75 -4 4 5 3 6 -4 2 -17 -9 -28 14 -12 25 10 6 10 9 2 9 -7 0 -17 -9
-23 -20 -6 -11 -15 -18 -21 -15 -5 4 -7 10 -4 15 3 4 -1 11 -7 13 -10 4 -10 6
0 6 7 1 10 6 6 13 -4 7 -3 8 5 4 6 -4 9 -12 6 -17 -4 -5 -2 -9 4 -9 15 0 23
18 11 25 -6 4 -8 11 -4 16 3 5 9 7 13 4 5 -2 13 7 20 22 10 23 10 25 -6 19
-14 -6 -15 -4 -6 5 13 13 36 3 27 -13 -5 -7 -2 -8 6 -3 10 6 12 4 7 -8 -11
-28 1 -19 18 13 9 16 12 30 8 30 -5 0 5 9 21 19 27 18 27 19 8 25 -20 7 -20 8
-5 26 14 16 20 17 32 7 11 -9 13 -9 8 0 -4 6 -3 14 3 18 6 4 8 10 5 15 -7 11
22 33 35 25 6 -3 7 -11 4 -17 -4 -7 -2 -8 5 -4 8 5 9 12 2 19 -9 12 11 52 21
42 2 -3 5 2 5 10 0 10 -4 12 -12 5 -7 -5 -15 -7 -19 -3 -4 4 -4 -1 0 -11 5
-14 4 -17 -5 -12 -6 4 -9 16 -6 27 7 21 -10 27 -18 7 -4 -10 -6 -10 -6 0 -1 7
7 16 16 19 15 6 15 7 -3 14 -17 7 -17 8 -1 8 10 1 16 5 12 11 -3 5 -13 6 -23
3 -10 -3 -5 4 11 18 27 24 38 47 15 33 -7 -4 -8 -3 -4 4 4 7 3 12 -2 12 -11 0
-10 59 1 77 4 6 3 14 -3 18 -5 3 -10 11 -10 18 0 6 7 2 15 -9 17 -22 20 -12 4
18 -8 15 -8 19 0 14 6 -4 11 -3 11 3 0 5 -6 14 -12 18 -29 18 -37 37 -23 56
12 16 14 17 29 2 15 -15 16 -15 13 4 -2 11 -7 24 -12 28 -4 5 -4 2 0 -6 6 -11
4 -13 -8 -8 -9 3 -23 0 -31 -8 -8 -8 -20 -15 -27 -15 -8 0 -5 7 7 16 17 14 17
15 1 10 -10 -3 -16 -2 -13 2 3 5 -9 16 -25 26 -24 14 -28 20 -18 32 11 14 1
20 -26 14 -5 -1 -7 2 -3 6 4 4 3 13 -4 21 -6 7 -8 16 -4 20 3 3 6 1 6 -6 0 -7
5 -9 10 -6 18 11 -8 33 -33 29 -17 -3 -18 -3 -5 3 12 6 15 12 8 23 -5 8 -10
20 -10 25 0 6 5 3 10 -5 7 -12 9 -10 7 7 -1 18 -4 20 -19 12 -10 -6 -15 -15
-12 -21 4 -7 3 -8 -5 -4 -6 4 -9 11 -6 16 3 4 -1 11 -7 13 -10 4 -10 6 0 6 6
1 12 6 12 12 0 5 -4 8 -9 4 -5 -3 -13 0 -17 7 -4 7 -4 10 1 6 9 -8 39 42 30
50 -3 3 -5 -1 -5 -9 0 -11 -2 -12 -9 -1 -7 11 -9 10 -14 -3 -5 -11 -3 -14 6
-9 9 5 9 4 0 -6 -11 -12 -15 -11 -25 2 -7 9 -20 18 -28 20 -10 3 -8 6 8 10 12
4 20 2 17 -2 -3 -5 -2 -11 3 -13 4 -3 12 6 19 19 7 16 8 22 0 17 -5 -3 -24 -7
-41 -8 -17 -1 -26 0 -19 2 6 2 9 15 7 30 -4 22 -2 24 9 15 11 -9 14 -8 14 3 0
8 -3 13 -5 10 -8 -8 -32 16 -26 26 3 5 1 16 -4 25 -8 14 -10 14 -22 -1 -11
-13 -10 -15 3 -9 11 4 15 0 14 -13 0 -11 -7 -20 -14 -20 -6 0 -10 4 -8 8 3 3
-2 12 -10 19 -8 7 -15 9 -15 5 0 -4 -7 -2 -15 5 -8 7 -15 17 -15 23 0 6 6 2
14 -9 14 -18 15 -18 21 -2 4 10 11 15 16 12 5 -3 1 8 -9 25 -9 17 -19 25 -23
19 -5 -7 -8 -7 -13 0 -3 6 -2 13 4 17 5 3 10 12 10 18 0 7 -4 6 -10 -3 -5 -8
-22 -16 -37 -17 -23 -2 -25 0 -10 8 9 6 15 15 11 21 -4 7 -10 5 -16 -3 -8 -11
-9 -11 -5 1 2 8 10 14 16 12 15 -3 14 15 -1 21 -7 2 -18 -5 -24 -16 -10 -17
-12 -18 -17 -3 -4 11 -3 15 4 11 6 -4 10 -1 8 6 -3 26 1 39 12 39 8 0 7 -6 -2
-17 -13 -16 -12 -17 4 -4 12 10 15 17 8 24 -7 7 -16 5 -29 -6 -27 -24 -36 -21
-11 4 15 15 18 24 10 33 -6 7 -8 16 -4 20 4 4 -1 4 -11 0 -14 -5 -15 -9 -4
-16 9 -7 8 -8 -5 -4 -15 5 -17 2 -12 -14 4 -12 2 -20 -5 -20 -6 0 -9 4 -5 9 3
5 -3 17 -12 27 -16 16 -16 17 -1 12 10 -4 19 -1 23 10 3 9 1 18 -4 20 -6 2 -9
8 -6 13 4 5 0 6 -8 3 -13 -5 -28 13 -73 88 -6 10 -14 15 -17 11 -4 -3 -8 -1
-8 5 -1 7 -2 17 -3 23 0 7 -10 15 -21 20 -11 4 -14 8 -7 8 7 1 10 6 6 13 -5 7
-11 5 -21 -7 -7 -11 -13 -14 -13 -8 0 7 4 14 10 18 5 3 6 13 3 21 -4 11 -8 12
-13 4 -4 -7 -10 -8 -13 -3 -3 5 3 15 15 22 15 9 18 10 13 0 -6 -8 -4 -10 4 -4
9 5 9 11 3 17 -6 6 -8 16 -6 23 6 16 -23 28 -32 13 -5 -7 -2 -8 6 -3 9 6 11 4
5 -5 -5 -8 -4 -11 2 -7 5 3 10 0 10 -8 0 -11 -4 -12 -13 -4 -8 6 -14 6 -18 0
-3 -5 -1 -12 4 -14 6 -3 5 -4 -2 -3 -15 3 -18 26 -5 43 5 7 4 20 -3 32 -8 16
-8 21 2 21 8 0 6 5 -5 11 -9 6 -15 15 -12 20 4 5 11 6 17 3 7 -4 8 -2 4 5 -6
8 -11 9 -20 2 -10 -8 -18 -5 -31 9 -10 11 -13 20 -8 20 15 0 24 28 12 35 -5 4
-8 3 -7 -2 4 -12 -30 -58 -38 -50 -3 3 1 13 10 22 24 25 19 39 -6 15 -23 -21
-45 -21 -40 0 1 7 -2 18 -8 25 -8 10 -8 15 0 20 8 5 8 10 0 20 -12 15 3 31 19
20 5 -3 13 0 17 6 4 7 3 9 -3 6 -6 -4 -22 2 -34 14 -17 14 -20 22 -11 25 13 6
17 25 5 23 -5 -1 -10 0 -13 1 -3 1 -13 3 -24 5 -13 3 -15 0 -8 -7 6 -6 8 -18
5 -27 -4 -14 -3 -14 6 -1 12 17 13 14 13 -42 1 -16 5 -28 10 -28 5 0 6 -5 3
-11 -9 -14 -15 -7 -21 27 -3 16 -15 39 -27 52 -20 22 -20 23 -2 16 18 -7 18
-6 6 9 -12 15 -10 18 10 26 17 7 19 10 7 10 -9 1 -24 -6 -32 -15 -22 -21 -20
-5 1 18 15 17 15 20 3 28 -8 6 -19 10 -25 10 -5 -1 -2 -5 8 -11 18 -10 18 -12
-2 -26 -12 -8 -18 -19 -15 -25 4 -7 2 -8 -4 -4 -13 8 -5 36 10 36 5 0 6 5 3
11 -5 7 -14 4 -28 -8 -22 -18 -22 -18 -4 3 23 27 22 37 -3 24 -15 -8 -18 -8
-14 3 3 8 13 14 22 13 9 0 17 3 17 9 0 5 -8 8 -17 7 -10 -2 -18 2 -18 8 0 6 4
9 8 6 4 -2 8 4 9 14 1 10 -12 32 -29 49 -20 19 -28 36 -24 46 3 9 2 13 -3 10
-5 -3 -12 -1 -16 5 -4 6 -11 7 -17 4 -8 -5 -9 -1 -4 11 7 18 6 18 -14 0 -11
-10 -23 -15 -27 -12 -3 4 -1 7 6 7 7 0 9 5 5 12 -4 6 -3 8 3 5 6 -4 14 0 17 9
3 8 2 12 -4 9 -5 -3 -9 3 -9 12 -1 37 -5 53 -10 47 -10 -9 -8 -28 4 -36 6 -5
5 -8 -3 -8 -7 0 -10 -4 -7 -10 3 -6 -1 -7 -10 -3 -9 3 -13 9 -8 12 15 10 -1
61 -18 61 -6 0 -5 -9 1 -21 7 -11 9 -23 7 -26 -3 -2 -8 5 -12 16 -4 13 -11 18
-18 14 -8 -4 -7 -1 1 9 8 10 9 19 3 22 -5 3 -11 3 -14 -1 -2 -5 -2 -2 0 5 1 8
3 21 3 29 0 9 3 13 7 9 4 -4 8 -15 8 -23 0 -9 6 -18 13 -20 6 -3 12 0 12 7 0
6 -4 8 -10 5 -5 -3 -10 -1 -10 4 0 6 6 11 13 11 17 1 -24 24 -43 25 -8 0 -16
8 -18 19 -3 11 0 16 7 11 6 -3 8 -11 5 -17 -4 -7 -2 -8 4 -4 13 8 -5 46 -21
46 -4 0 -6 -4 -2 -9 3 -5 1 -13 -5 -16 -6 -4 -10 -3 -9 2 3 13 -12 43 -23 43
-5 0 -6 -6 -2 -12 5 -8 1 -8 -12 2 -10 8 -21 15 -23 17 -2 1 9 1 23 0 15 -1
31 -9 36 -17 6 -9 10 -10 10 -3 0 6 -5 15 -10 18 -8 5 -8 11 0 20 8 10 8 15
-1 21 -8 4 -9 3 -5 -5 14 -22 -25 -24 -40 -2 -9 12 -20 18 -26 15 -6 -4 -6 2
1 15 7 11 8 21 4 21 -4 0 -1 4 7 10 8 5 11 12 7 17 -9 8 -28 -17 -22 -28 3 -3
-5 -15 -16 -25 -18 -16 -19 -16 -13 -1 3 9 10 17 14 17 5 0 7 9 5 20 -2 11 0
22 6 25 5 4 9 12 9 18 0 7 -5 4 -11 -5 -5 -10 -15 -18 -21 -18 -6 0 -5 6 3 16
8 9 9 18 3 22 -5 4 -10 14 -9 23 0 8 -8 23 -17 33 -10 10 -18 12 -18 6 0 -6
-5 -8 -12 -4 -6 4 -8 3 -5 -3 4 -6 0 -16 -7 -22 -10 -9 -16 -9 -21 -1 -4 6 -3
9 2 8 4 -2 8 2 8 7 0 6 -3 9 -7 8 -13 -5 -9 4 9 18 13 11 15 11 9 1 -7 -11 -4
-11 13 0 12 7 21 17 21 22 0 4 -6 3 -14 -3 -10 -8 -16 -9 -21 -1 -3 5 -2 10 3
10 5 0 9 7 9 16 0 15 -2 14 -13 -1 -8 -10 -11 -22 -8 -26 9 -15 -6 -10 -23 7
-9 8 -22 13 -29 10 -7 -3 -16 -1 -19 4 -3 5 8 7 24 5 18 -2 34 2 41 11 10 11
9 14 -4 14 -11 0 -14 -4 -10 -12 6 -10 5 -10 -8 -1 -8 7 -19 9 -23 5 -5 -4 -5
-1 -1 6 4 7 11 10 16 7 5 -3 5 8 0 24 -4 16 -5 32 -2 36 4 4 2 6 -3 4 -16 -4
-45 12 -39 22 3 5 1 9 -5 9 -5 0 -9 -9 -8 -20 1 -13 6 -19 15 -15 7 2 10 0 7
-5 -4 -6 -1 -9 6 -8 7 2 13 -5 14 -14 0 -10 -3 -18 -7 -18 -5 0 -8 3 -7 6 2
17 -27 22 -38 7 -7 -9 -13 -12 -13 -7 0 6 5 15 12 22 9 9 9 12 1 12 -7 0 -15
-4 -18 -10 -3 -5 -11 -10 -18 -10 -6 0 -2 7 9 16 18 15 18 15 0 10 -13 -4 -24
1 -34 15 -10 15 -17 18 -25 10 -6 -6 -16 -11 -21 -11 -6 0 -3 5 7 11 9 6 15
14 12 20 -4 5 -1 9 5 9 6 0 9 4 5 9 -3 5 0 13 6 17 8 5 9 3 4 -6 -6 -9 -4 -11
5 -5 9 6 11 4 5 -5 -5 -8 -4 -11 3 -6 12 7 5 36 -8 36 -5 0 -11 8 -13 18 -4
16 -5 16 -6 -1z m-56 -77 c-3 -5 -1 -10 6 -10 7 0 10 -3 6 -6 -9 -9 -28 6 -22
17 4 5 8 9 11 9 3 0 2 -4 -1 -10z m-18 -26 c-3 -3 -1 -18 4 -33 6 -15 6 -22 1
-16 -17 18 -24 55 -11 55 7 0 10 -3 6 -6z m78 -4 c-3 -5 -1 -10 5 -10 6 0 8
-5 4 -11 -4 -8 -9 -7 -15 2 -7 12 -3 29 7 29 3 0 2 -4 -1 -10z m-100 -20 c3
-6 -1 -7 -9 -4 -18 7 -21 14 -7 14 6 0 13 -4 16 -10z m79 -9 c4 -5 -3 -7 -14
-4 -23 6 -26 13 -6 13 8 0 17 -4 20 -9z m-94 -11 c0 -5 -4 -10 -10 -10 -5 0
-10 5 -10 10 0 6 5 10 10 10 6 0 10 -4 10 -10z m213 -13 c3 -8 -1 -14 -8 -14
-7 0 -11 6 -8 14 3 7 6 13 8 13 2 0 5 -6 8 -13z m-259 -13 c3 -8 2 -12 -4 -9
-6 3 -10 10 -10 16 0 14 7 11 14 -7z m137 -7 c-10 -9 -11 -8 -5 6 3 10 9 15
12 12 3 -3 0 -11 -7 -18z m-51 9 c0 -2 -8 -10 -17 -17 -16 -13 -17 -12 -4 4
13 16 21 21 21 13z m-40 -20 c0 -2 -8 -10 -17 -17 -16 -13 -17 -12 -4 4 13 16
21 21 21 13z m60 1 c0 -2 -10 -12 -22 -23 l-23 -19 19 23 c18 21 26 27 26 19z
m110 -13 c0 -8 -19 -13 -24 -6 -3 5 1 9 9 9 8 0 15 -2 15 -3z m-86 -26 c-3 -5
0 -17 8 -26 11 -15 11 -15 -2 -6 -8 6 -22 10 -31 9 -9 -2 -16 3 -16 11 0 11 3
11 16 1 12 -10 14 -9 9 4 -4 9 -1 16 8 16 7 0 11 -4 8 -9z m36 -3 c-5 -7 -9
-14 -7 -16 1 -2 0 -3 -2 -1 -11 7 -7 29 5 29 9 0 11 -4 4 -12z m-240 -20 c-7
-8 -17 -15 -23 -15 -6 0 -2 7 9 15 25 19 30 19 14 0z m197 -21 c-3 -3 -12 -4
-19 -1 -8 3 -5 6 6 6 11 1 17 -2 13 -5z m280 -19 c0 -18 -17 -20 -17 -2 -1 7
-6 5 -14 -5 -7 -10 -16 -18 -20 -18 -4 0 1 11 11 24 19 25 40 25 40 1z m-316
-29 c-5 -12 -7 -28 -6 -37 2 -9 -3 -16 -11 -16 -8 0 -10 5 -5 11 4 6 8 23 7
37 -1 14 4 26 10 26 8 0 10 -7 5 -21z m93 -5 c-8 -8 -34 -10 -38 -2 -3 4 6 7
19 7 14 0 22 -2 19 -5z m226 0 c0 -6 -5 -13 -12 -17 -7 -5 -8 -3 -3 6 6 10 4
12 -9 7 -10 -4 -15 -3 -11 3 8 13 35 13 35 1z m-569 -38 c-12 -20 -14 -14 -5
12 4 9 9 14 11 11 3 -2 0 -13 -6 -23z m306 -7 c0 -8 -8 -11 -21 -8 -19 5 -19
6 0 13 10 4 19 8 20 8 0 1 1 -5 1 -13z m-391 -72 c-5 -12 -2 -15 10 -10 13 5
14 4 6 -7 -9 -10 -8 -17 0 -25 7 -7 9 -12 5 -12 -12 0 -39 49 -32 60 10 16 18
12 11 -6z m418 -5 c3 -3 -6 -5 -19 -5 -14 0 -25 4 -25 8 0 8 36 6 44 -3z m290
2 c4 -5 -3 -7 -14 -4 -23 6 -26 13 -6 13 8 0 17 -4 20 -9z m-423 -28 c13 -16
12 -17 -3 -4 -17 13 -22 21 -14 21 2 0 10 -8 17 -17z m92 -10 c8 3 14 -1 14
-9 0 -7 -4 -11 -9 -8 -5 3 -16 0 -24 -7 -12 -10 -13 -9 -8 6 5 11 4 16 -3 12
-5 -3 -10 0 -10 8 0 11 4 12 14 4 7 -6 19 -9 26 -6z m369 -55 c-8 -8 -9 -4 -5
13 4 13 8 18 11 10 2 -7 -1 -18 -6 -23z m-412 -4 c0 -8 -19 -13 -24 -6 -3 5 1
9 9 9 8 0 15 -2 15 -3z m19 -30 c-14 -13 -16 -13 -16 0 0 8 5 12 10 9 7 -4 8
1 3 13 -6 15 -5 17 5 6 11 -10 10 -15 -2 -28z m-385 8 c3 -5 -1 -9 -9 -9 -8 0
-12 4 -9 9 3 4 7 8 9 8 2 0 6 -4 9 -8z m440 -1 c-9 -9 -34 -9 -34 -1 0 5 9 8
20 7 10 -1 17 -3 14 -6z m376 3 c0 -8 -19 -13 -24 -6 -3 5 1 9 9 9 8 0 15 -2
15 -3z m-492 -29 c-3 -3 -9 2 -12 12 -6 14 -5 15 5 6 7 -7 10 -15 7 -18z m38
-20 c1 -8 -1 -17 -5 -19 -4 -3 -7 6 -7 19 0 25 8 25 12 0z m61 -37 c-3 -8 -6
-5 -6 6 -1 11 2 17 5 13 3 -3 4 -12 1 -19z m-504 3 c5 -1 1 -8 -7 -17 -9 -8
-13 -20 -10 -26 4 -7 2 -8 -4 -4 -6 4 -8 14 -5 23 4 10 2 14 -4 10 -5 -3 -10
0 -10 7 0 8 7 12 16 11 9 -2 20 -4 24 -4z m449 -28 c-5 -10 -7 -24 -5 -30 3
-7 0 -13 -6 -13 -10 0 -8 31 4 50 11 17 16 11 7 -7z m63 -12 c-9 -8 -36 -10
-30 -2 2 4 11 8 20 8 8 0 13 -3 10 -6z m-105 -21 c0 -5 -5 -10 -11 -10 -5 0
-7 5 -4 10 3 6 8 10 11 10 2 0 4 -4 4 -10z m116 -5 c-1 -8 -5 -17 -8 -21 -5
-4 -4 16 1 34 3 9 9 -1 7 -13z m459 5 c3 -5 1 -10 -4 -10 -6 0 -11 5 -11 10 0
6 2 10 4 10 3 0 8 -4 11 -10z m-444 -33 c-10 -9 -11 -8 -5 6 3 10 9 15 12 12
3 -3 0 -11 -7 -18z m-95 4 c-4 -5 0 -11 6 -14 7 -3 3 -4 -9 -4 -17 1 -19 4
-11 14 12 15 22 18 14 4z m604 -13 c0 -4 16 -25 35 -47 39 -43 44 -57 16 -42
-10 6 -22 7 -26 3 -5 -4 -5 -1 -1 6 4 6 2 12 -4 12 -7 0 -10 7 -7 15 7 18 -9
30 -17 13 -3 -7 -3 -3 0 10 3 12 1 22 -5 22 -6 0 -11 -8 -12 -17 0 -15 -2 -15
-8 2 -5 11 -7 23 -5 26 5 9 34 7 34 -3z m-560 -23 c-10 -12 -10 -15 0 -15 8 0
11 -3 7 -6 -3 -3 -11 -3 -17 1 -8 5 -8 11 1 21 6 8 14 14 16 14 3 0 0 -7 -7
-15z m-546 -14 c-3 -3 -9 -6 -12 -6 -4 -1 -17 -6 -28 -13 -21 -11 -38 -6 -28
9 2 4 11 6 18 3 8 -3 16 -1 20 4 3 5 12 9 21 9 8 0 12 -3 9 -6z m507 -15 c-5
-12 -7 -28 -6 -37 2 -9 -3 -16 -11 -16 -8 0 -10 5 -5 11 4 6 8 23 7 37 -1 14
4 26 10 26 8 0 10 -7 5 -21z m-548 -31 c-3 -9 -8 -14 -10 -11 -3 3 -2 9 2 15
9 16 15 13 8 -4z m624 1 c-1 -6 5 -9 13 -8 8 2 11 0 7 -4 -4 -4 -15 -9 -23
-10 -9 -1 -13 0 -10 3 3 4 1 11 -4 18 -7 8 -5 12 5 12 7 0 13 -5 12 -11z m520
-1 c0 -8 -4 -12 -9 -9 -5 3 -6 10 -3 15 9 13 12 11 12 -6z m-522 -76 c-4 -5
-12 -9 -18 -8 -9 0 -8 2 1 6 6 2 9 10 6 15 -4 7 -2 8 5 4 6 -4 9 -12 6 -17z
m-680 -17 c-3 -3 -11 0 -18 7 -9 10 -8 11 6 5 10 -3 15 -9 12 -12z m556 -29
c13 -16 12 -17 -3 -4 -10 7 -18 15 -18 17 0 8 8 3 21 -13z m92 -10 c8 3 14 -1
14 -9 0 -7 -4 -11 -9 -8 -5 3 -16 0 -24 -7 -12 -10 -13 -9 -8 6 5 11 4 16 -3
12 -5 -3 -10 0 -10 8 0 11 4 12 14 4 7 -6 19 -9 26 -6z m-43 -59 c0 -8 -19
-13 -24 -6 -3 5 1 9 9 9 8 0 15 -2 15 -3z m19 -30 c-14 -13 -16 -13 -16 0 0 8
5 12 10 9 7 -4 8 1 3 13 -6 15 -5 17 5 6 11 -10 10 -15 -2 -28z m776 16 c3 -5
1 -10 -4 -10 -6 0 -11 5 -11 10 0 6 2 10 4 10 3 0 8 -4 11 -10z m-721 -9 c-9
-9 -34 -9 -34 -1 0 5 9 8 20 7 10 -1 17 -3 14 -6z m-116 -26 c-3 -3 -9 2 -12
12 -6 14 -5 15 5 6 7 -7 10 -15 7 -18z m38 -20 c1 -8 -1 -17 -5 -19 -4 -3 -7
6 -7 19 0 25 8 25 12 0z m-729 -21 c0 -7 -6 -10 -14 -7 -9 4 -11 0 -7 -13 6
-17 5 -17 -9 1 -8 11 -14 22 -12 25 7 11 42 6 42 -6z m790 -16 c-3 -8 -6 -5
-6 6 -1 11 2 17 5 13 3 -3 4 -12 1 -19z m-55 -25 c-5 -10 -7 -24 -5 -30 3 -7
0 -13 -6 -13 -10 0 -8 31 4 50 11 17 16 11 7 -7z m63 -12 c-9 -8 -36 -10 -30
-2 2 4 11 8 20 8 8 0 13 -3 10 -6z m-105 -21 c0 -5 -5 -10 -11 -10 -5 0 -7 5
-4 10 3 6 8 10 11 10 2 0 4 -4 4 -10z m116 -5 c-1 -8 -5 -17 -8 -21 -5 -4 -4
16 1 34 3 9 9 -1 7 -13z m841 -38 c0 -6 2 -18 4 -26 2 -7 -2 -16 -10 -18 -10
-4 -11 1 -6 18 7 21 6 22 -9 10 -9 -8 -19 -11 -23 -7 -3 3 -1 6 7 6 10 0 10 4
-1 18 -13 15 -12 16 4 3 20 -15 22 -9 6 20 -10 20 -11 20 -25 2 -14 -17 -14
-16 -4 5 l12 24 22 -21 c13 -12 23 -27 23 -34z m-826 10 c-10 -9 -11 -8 -5 6
3 10 9 15 12 12 3 -3 0 -11 -7 -18z m-95 4 c-4 -5 0 -11 6 -14 7 -3 3 -4 -9
-4 -17 1 -19 4 -11 14 12 15 22 18 14 4z m44 -36 c-10 -12 -10 -15 0 -15 8 0
11 -3 7 -6 -3 -3 -11 -3 -17 1 -8 5 -8 11 1 21 6 8 14 14 16 14 3 0 0 -7 -7
-15z m-39 -29 c-5 -12 -7 -28 -6 -37 2 -9 -3 -16 -11 -16 -8 0 -10 5 -5 11 4
6 8 23 7 37 -1 14 4 26 10 26 8 0 10 -7 5 -21z m76 -30 c-1 -6 5 -9 13 -8 8 2
11 0 7 -4 -4 -4 -15 -9 -23 -10 -9 -1 -13 0 -10 3 3 4 1 11 -4 18 -7 8 -5 12
5 12 7 0 13 -5 12 -11z m-2 -77 c-4 -5 -12 -9 -18 -8 -9 0 -8 2 1 6 6 2 9 10
6 15 -4 7 -2 8 5 4 6 -4 9 -12 6 -17z m-124 -46 c13 -16 12 -17 -3 -4 -17 13
-22 21 -14 21 2 0 10 -8 17 -17z m92 -10 c8 3 14 -1 14 -9 0 -7 -4 -11 -9 -8
-5 3 -16 0 -24 -7 -12 -10 -13 -9 -8 6 5 11 4 16 -3 12 -5 -3 -10 0 -10 8 0
11 4 12 14 4 7 -6 19 -9 26 -6z m-83 -27 c0 -2 -8 -10 -17 -17 -16 -13 -17
-12 -4 4 13 16 21 21 21 13z m1089 -20 c8 -10 9 -16 1 -21 -6 -4 -9 -1 -8 7 2
7 -5 12 -14 12 -10 -1 -15 2 -12 7 8 13 20 11 33 -5z m-1030 -42 c-14 -13 -16
-13 -16 0 0 8 5 12 10 9 7 -4 8 1 3 13 -6 15 -5 17 5 6 11 -10 10 -15 -2 -28z
m55 7 c-9 -9 -34 -9 -34 -1 0 5 9 8 20 7 10 -1 17 -3 14 -6z m1005 -9 c7 -13
6 -19 -2 -19 -7 0 -13 9 -13 19 0 10 1 18 3 18 1 0 7 -8 12 -18z m-1084 -21
c3 -5 2 -12 -3 -15 -5 -3 -9 1 -9 9 0 17 3 19 12 6z m1129 -9 c3 -5 -1 -9 -9
-9 -8 0 -15 4 -15 9 0 4 4 8 9 8 6 0 12 -4 15 -8z m-2169 -20 c-3 -3 -11 0
-18 7 -9 10 -8 11 6 5 10 -3 15 -9 12 -12z m1102 -24 c-3 -8 -6 -5 -6 6 -1 11
2 17 5 13 3 -3 4 -12 1 -19z m-62 -64 c0 -18 -3 -35 -6 -39 -3 -3 -5 7 -4 22
1 16 -2 33 -6 39 -5 6 -3 11 4 11 8 0 13 -12 12 -33z m55 30 c0 -8 -19 -13
-24 -6 -3 5 1 9 9 9 8 0 15 -2 15 -3z m46 -6 c3 -4 -1 -5 -10 -4 -8 1 -18 5
-22 8 -3 4 1 5 10 4 8 -1 18 -5 22 -8z m-136 -18 c0 -5 -5 -10 -11 -10 -5 0
-7 5 -4 10 3 6 8 10 11 10 2 0 4 -4 4 -10z m133 -13 c4 3 7 4 7 0 0 -17 -20
-14 -36 6 -19 22 -19 22 2 4 11 -9 24 -14 27 -10z m1138 -87 c6 0 7 6 3 13 -6
9 -5 9 8 0 8 -7 19 -9 23 -5 5 4 5 1 1 -5 -4 -7 -2 -13 4 -13 6 0 8 -5 4 -11
-4 -8 -9 -7 -15 2 -4 8 -16 14 -25 14 -10 0 -18 6 -20 13 -1 7 0 8 3 2 2 -5 9
-10 14 -10z m-37 2 c3 -5 -1 -9 -9 -9 -8 0 -12 4 -9 9 3 4 7 8 9 8 2 0 6 -4 9
-8z m-2364 -42 c0 -5 -2 -10 -4 -10 -3 0 -8 5 -11 10 -3 6 -1 10 4 10 6 0 11
-4 11 -10z m-35 -20 c-3 -5 -12 -10 -18 -10 -7 0 -6 4 3 10 19 12 23 12 15 0z
m-31 -26 c4 -9 4 -19 1 -22 -3 -3 -5 0 -5 7 0 7 -5 9 -10 6 -7 -4 -7 -12 -2
-18 13 -18 9 -40 -8 -44 -9 -3 -11 -1 -5 4 12 9 13 28 3 39 -5 4 -8 0 -8 -9 0
-9 -5 -17 -10 -17 -12 0 4 35 20 45 6 4 8 11 5 16 -4 5 -2 9 3 9 6 0 13 -7 16
-16z m2513 -6 c-3 -8 -6 -5 -6 6 -1 11 2 17 5 13 3 -3 4 -12 1 -19z m48 -8
c-3 -5 -14 -10 -23 -9 -14 0 -13 2 3 9 27 11 27 11 20 0z m-12 -41 c-8 -8 -13
-7 -18 2 -5 8 -4 10 3 5 7 -4 12 -2 12 5 0 7 3 9 7 6 4 -4 2 -12 -4 -18z
m-1259 -38 c3 -5 -2 -15 -12 -22 -15 -12 -16 -12 -5 2 7 9 10 19 6 22 -3 4 -4
7 0 7 3 0 8 -4 11 -9z m-56 -26 c-3 -3 -9 2 -12 12 -6 14 -5 15 5 6 7 -7 10
-15 7 -18z m-22 3 c4 -7 4 -10 -1 -6 -4 4 -15 2 -24 -5 -14 -11 -14 -10 -2 6
16 20 18 21 27 5z m-1296 -29 c10 -18 10 -19 -8 -10 -11 6 -22 8 -25 5 -3 -3
-8 0 -13 7 -4 7 -3 10 4 5 6 -3 13 -2 17 4 9 14 13 13 25 -11z m2680 11 c0 -5
-5 -10 -11 -10 -5 0 -7 5 -4 10 3 6 8 10 11 10 2 0 4 -4 4 -10z m-1313 -6 c-3
-3 -12 -4 -19 -1 -8 3 -5 6 6 6 11 1 17 -2 13 -5z m-7 -29 c0 -2 -5 -7 -12
-11 -7 -5 -8 -3 -3 6 6 9 4 12 -7 8 -8 -4 -15 0 -15 7 0 10 5 11 19 4 10 -5
18 -12 18 -14z m33 -12 c-3 -7 -6 -13 -8 -13 -2 0 -5 6 -8 13 -3 8 1 14 8 14
7 0 11 -6 8 -14z m-93 3 c0 -2 -8 -10 -17 -17 -16 -13 -17 -12 -4 4 13 16 21
21 21 13z m23 -86 c-6 -22 -18 -26 -29 -8 -4 6 -3 8 3 5 6 -4 13 0 17 8 8 22
15 18 9 -5z m74 4 c-3 -3 -12 -4 -19 -1 -8 3 -5 6 6 6 11 1 17 -2 13 -5z
m-1461 -23 c0 -11 -4 -17 -8 -15 -4 3 -8 12 -8 20 0 8 4 14 8 14 4 0 8 -9 8
-19z m1348 -9 c3 -5 -1 -9 -9 -9 -8 0 -12 4 -9 9 3 4 7 8 9 8 2 0 6 -4 9 -8z
m79 -9 c-4 -10 -2 -14 4 -10 5 3 10 -1 10 -9 0 -13 -2 -13 -15 0 -8 8 -11 19
-8 25 11 17 16 13 9 -6z m-1469 -5 c-3 -4 -11 -5 -19 -1 -21 7 -19 12 4 10 11
0 18 -5 15 -9z m1406 -28 c0 -5 -2 -10 -4 -10 -3 0 -8 5 -11 10 -3 6 -1 10 4
10 6 0 11 -4 11 -10z m64 -22 c-3 -4 -9 -8 -15 -8 -5 0 -9 4 -9 8 0 5 7 9 15
9 8 0 12 -4 9 -9z m1536 -118 c0 -5 -4 -10 -10 -10 -5 0 -10 5 -10 10 0 6 5
10 10 10 6 0 10 -4 10 -10z m-2683 -35 c0 -8 -4 -12 -9 -9 -5 3 -6 10 -3 15 9
13 12 11 12 -6z m160 0 c0 -8 -4 -12 -9 -9 -5 3 -6 10 -3 15 9 13 12 11 12 -6z
m160 0 c0 -8 -4 -12 -9 -9 -5 3 -6 10 -3 15 9 13 12 11 12 -6z m160 0 c0 -8
-4 -12 -9 -9 -5 3 -6 10 -3 15 9 13 12 11 12 -6z m160 0 c0 -8 -4 -12 -9 -9
-5 3 -6 10 -3 15 9 13 12 11 12 -6z m2038 -26 c-4 -5 -12 -9 -18 -8 -9 0 -8 2
1 6 6 2 9 10 6 15 -4 7 -2 8 5 4 6 -4 9 -12 6 -17z m-1958 -11 c2 -17 0 -19
-7 -8 -5 8 -6 18 -4 22 8 12 10 10 11 -14z m168 12 c-3 -5 -12 -10 -18 -10 -7
0 -6 4 3 10 19 12 23 12 15 0z m855 6 c0 -2 -7 -7 -16 -10 -8 -3 -12 -2 -9 4
6 10 25 14 25 6z m156 -31 c0 -14 -2 -25 -6 -25 -4 0 -7 13 -6 29 1 35 10 31
12 -4z m169 25 c3 -6 -1 -7 -9 -4 -18 7 -21 14 -7 14 6 0 13 -4 16 -10z m155
6 c0 -2 -7 -7 -16 -10 -8 -3 -12 -2 -9 4 6 10 25 14 25 6z m156 -31 c0 -14 -2
-25 -6 -25 -4 0 -7 13 -6 29 1 35 10 31 12 -4z m241 13 c2 -17 0 -19 -7 -8 -5
8 -6 18 -4 22 8 12 10 10 11 -14z m-2936 -5 c13 -16 12 -17 -3 -4 -10 7 -18
15 -18 17 0 8 8 3 21 -13z m112 2 c-3 -9 -8 -14 -10 -11 -3 3 -2 9 2 15 9 16
15 13 8 -4z m45 -10 c-3 -3 -9 2 -12 12 -6 14 -5 15 5 6 7 -7 10 -15 7 -18z
m109 8 c-14 -14 -19 -15 -29 -4 -11 10 -10 11 3 6 10 -4 20 -2 24 4 3 6 9 11
13 11 3 0 -1 -8 -11 -17z m160 0 c-14 -14 -19 -15 -29 -4 -11 10 -10 11 3 6
10 -4 20 -2 24 4 3 6 9 11 13 11 3 0 -1 -8 -11 -17z m160 0 c-14 -14 -19 -15
-29 -4 -11 10 -10 11 3 6 10 -4 20 -2 24 4 3 6 9 11 13 11 3 0 -1 -8 -11 -17z
m160 0 c-14 -14 -19 -15 -29 -4 -11 10 -10 11 3 6 10 -4 20 -2 24 4 3 6 9 11
13 11 3 0 -1 -8 -11 -17z m160 0 c-14 -14 -19 -15 -29 -4 -11 10 -10 11 3 6
10 -4 20 -2 24 4 3 6 9 11 13 11 3 0 -1 -8 -11 -17z m1908 -11 c-1 -9 2 -23 8
-30 5 -7 7 -15 3 -19 -3 -3 -6 -1 -6 6 0 7 -4 10 -8 7 -4 -2 -8 11 -8 29 0 18
3 32 7 29 4 -2 6 -12 4 -22z m-1726 4 c9 -11 9 -16 -1 -22 -7 -4 -10 -4 -6 1
4 4 3 14 -3 22 -6 7 -9 13 -6 13 2 0 10 -6 16 -14z m161 4 c-8 -5 -19 -10 -25
-10 -5 0 -3 5 5 10 8 5 20 10 25 10 6 0 3 -5 -5 -10z m650 2 c0 -5 -7 -9 -15
-9 -8 0 -12 4 -9 9 3 4 9 8 15 8 5 0 9 -4 9 -8z m57 -6 c0 -8 -6 -12 -15 -9
-11 5 -11 7 0 14 7 5 13 9 14 9 0 0 1 -6 1 -14z m118 5 c-9 -8 -36 -10 -30 -2
2 4 11 8 20 8 8 0 13 -3 10 -6z m295 4 c0 -2 -6 -8 -13 -14 -10 -8 -14 -7 -14
2 0 8 6 14 14 14 7 0 13 -1 13 -2z m67 -9 c0 -8 -6 -12 -15 -9 -11 5 -11 7 0
14 7 5 13 9 14 9 0 0 1 -6 1 -14z m120 -3 c0 -8 -4 -10 -12 -3 -7 5 -16 6 -20
2 -5 -4 -5 -2 -2 4 9 15 34 13 34 -3z m-2700 -8 c0 -11 -4 -12 -14 -4 -7 6
-13 13 -13 15 0 2 6 4 13 4 8 0 14 -7 14 -15z m119 6 c-4 -5 0 -11 6 -14 7 -3
3 -4 -9 -4 -17 1 -19 4 -11 14 12 15 22 18 14 4z m117 -4 c3 -8 -1 -14 -8 -14
-7 0 -11 6 -8 14 3 7 6 13 8 13 2 0 5 -6 8 -13z m45 0 c8 -10 6 -13 -7 -13
-11 0 -17 6 -14 13 3 7 6 13 8 13 1 0 7 -6 13 -13z m79 -2 c0 -8 -4 -12 -9 -9
-5 3 -6 10 -3 15 9 13 12 11 12 -6z m78 -6 c-4 -5 -12 -9 -18 -8 -9 0 -8 2 1
6 6 2 9 10 6 15 -4 7 -2 8 5 4 6 -4 9 -12 6 -17z m82 6 c0 -8 -4 -12 -9 -9 -5
3 -6 10 -3 15 9 13 12 11 12 -6z m78 -6 c-4 -5 -12 -9 -18 -8 -9 0 -8 2 1 6 6
2 9 10 6 15 -4 7 -2 8 5 4 6 -4 9 -12 6 -17z m82 6 c0 -8 -4 -12 -9 -9 -5 3
-6 10 -3 15 9 13 12 11 12 -6z m78 -6 c-4 -5 -12 -9 -18 -8 -9 0 -8 2 1 6 6 2
9 10 6 15 -4 7 -2 8 5 4 6 -4 9 -12 6 -17z m82 6 c0 -8 -4 -12 -9 -9 -5 3 -6
10 -3 15 9 13 12 11 12 -6z m78 -6 c-4 -5 -12 -9 -18 -8 -9 0 -8 2 1 6 6 2 9
10 6 15 -4 7 -2 8 5 4 6 -4 9 -12 6 -17z m82 6 c0 -8 -4 -12 -9 -9 -5 3 -6 10
-3 15 9 13 12 11 12 -6z m78 -6 c-4 -5 -12 -9 -18 -8 -9 0 -8 2 1 6 6 2 9 10
6 15 -4 7 -2 8 5 4 6 -4 9 -12 6 -17z m88 8 c3 -7 -3 -13 -14 -13 -13 0 -15 3
-7 13 6 7 12 13 13 13 2 0 5 -6 8 -13z m1072 -8 c-3 -12 -7 -24 -10 -27 -3 -3
-3 5 -1 19 6 30 5 29 10 29 3 0 3 -10 1 -21z m45 -9 c-6 -10 -5 -21 1 -27 6
-6 5 -10 -5 -10 -8 0 -12 5 -9 10 4 6 0 8 -10 4 -11 -4 -14 -2 -10 8 3 8 10
12 16 8 6 -4 8 0 5 9 -4 8 0 15 7 15 10 0 11 -5 5 -17z m149 -1 c-5 -10 -15
-21 -22 -25 -8 -6 -8 -3 1 9 8 9 11 20 8 25 -3 5 1 9 9 9 10 0 11 -5 4 -18z
m331 1 c-6 -10 -5 -21 1 -27 6 -6 5 -10 -5 -10 -8 0 -12 5 -9 10 4 6 0 8 -10
4 -11 -4 -14 -2 -10 8 3 8 10 12 16 8 6 -4 8 0 5 9 -4 8 0 15 7 15 10 0 11 -5
5 -17z m153 3 c-3 -7 -6 -13 -8 -13 -2 0 -5 6 -8 13 -3 8 1 14 8 14 7 0 11 -6
8 -14z m139 3 c10 6 11 4 0 -7 -10 -11 -15 -10 -30 6 -15 17 -15 18 0 6 9 -7
23 -9 30 -5z m67 -8 c-6 -10 -14 -16 -19 -13 -4 3 -10 -1 -13 -7 -3 -7 -4 -3
-4 9 1 18 4 20 16 10 12 -10 14 -9 9 4 -4 9 -1 16 7 16 10 0 11 -5 4 -19z
m-2946 -1 c4 3 7 1 7 -5 0 -17 -16 -15 -31 6 -12 15 -12 16 2 5 9 -7 19 -10
22 -6z m224 7 c-3 -3 -12 -4 -19 -1 -8 3 -5 6 6 6 11 1 17 -2 13 -5z m160 0
c-3 -3 -12 -4 -19 -1 -8 3 -5 6 6 6 11 1 17 -2 13 -5z m160 0 c-3 -3 -12 -4
-19 -1 -8 3 -5 6 6 6 11 1 17 -2 13 -5z m160 0 c-3 -3 -12 -4 -19 -1 -8 3 -5
6 6 6 11 1 17 -2 13 -5z m160 0 c-3 -3 -12 -4 -19 -1 -8 3 -5 6 6 6 11 1 17
-2 13 -5z m170 0 c-3 -3 -12 -4 -19 -1 -8 3 -5 6 6 6 11 1 17 -2 13 -5z m853
2 c0 -2 -8 -10 -17 -17 -16 -13 -17 -12 -4 4 13 16 21 21 21 13z m79 -12 c4 3
12 -3 18 -13 9 -14 8 -18 -3 -18 -7 0 -10 5 -7 10 4 6 0 8 -8 5 -10 -4 -15 1
-16 16 0 11 1 15 4 8 3 -6 8 -10 12 -8z m39 -9 c-3 -3 -9 2 -12 12 -6 14 -5
15 5 6 7 -7 10 -15 7 -18z m423 2 c-10 -9 -11 -8 -5 6 3 10 9 15 12 12 3 -3 0
-11 -7 -18z m55 -3 c1 -9 0 -13 -4 -10 -3 4 -7 14 -8 22 -1 9 0 13 4 10 3 -4
7 -14 8 -22z m52 6 c-7 -10 -14 -17 -17 -15 -4 4 18 35 25 35 2 0 -1 -9 -8
-20z m-2659 -17 l13 -28 -21 22 c-23 24 -26 33 -13 33 5 0 14 -12 21 -27z m22
4 c-10 -9 -11 -8 -5 6 3 10 9 15 12 12 3 -3 0 -11 -7 -18z m288 8 c3 -3 -7 -4
-23 -1 -16 3 -31 8 -35 11 -3 3 7 4 23 1 16 -3 31 -8 35 -11z m86 5 c-3 -5
-12 -10 -18 -10 -7 0 -6 4 3 10 19 12 23 12 15 0z m74 -5 c3 -3 -7 -4 -23 -1
-16 3 -31 8 -35 11 -3 3 7 4 23 1 16 -3 31 -8 35 -11z m86 5 c-3 -5 -12 -10
-18 -10 -7 0 -6 4 3 10 19 12 23 12 15 0z m74 -5 c3 -3 -7 -4 -23 -1 -16 3
-31 8 -35 11 -3 3 7 4 23 1 16 -3 31 -8 35 -11z m86 5 c-3 -5 -12 -10 -18 -10
-7 0 -6 4 3 10 19 12 23 12 15 0z m74 -5 c3 -3 -7 -4 -23 -1 -16 3 -31 8 -35
11 -3 3 7 4 23 1 16 -3 31 -8 35 -11z m86 5 c-3 -5 -12 -10 -18 -10 -7 0 -6 4
3 10 19 12 23 12 15 0z m74 -5 c3 -3 -7 -4 -23 -1 -16 3 -31 8 -35 11 -3 3 7
4 23 1 16 -3 31 -8 35 -11z m86 5 c-3 -5 -12 -10 -18 -10 -7 0 -6 4 3 10 19
12 23 12 15 0z m180 1 c-3 -2 -16 -6 -28 -8 -15 -2 -18 0 -9 5 14 9 45 12 37
3z m40 -1 c3 -6 -1 -7 -9 -4 -18 7 -21 14 -7 14 6 0 13 -4 16 -10z m792 -12
c-3 -8 -6 -5 -6 6 -1 11 2 17 5 13 3 -3 4 -12 1 -19z m-17 8 c0 -2 -8 -10 -17
-17 -16 -13 -17 -12 -4 4 13 16 21 21 21 13z m-1956 -14 c-6 -4 -10 -15 -8
-24 1 -10 -1 -20 -5 -23 -4 -2 -7 8 -5 23 3 34 2 32 17 32 8 0 9 -3 1 -8z
m113 -17 c0 -8 -3 -13 -5 -10 -3 3 -10 0 -17 -5 -8 -7 -12 -5 -12 5 0 8 5 11
10 8 6 -4 8 0 4 10 -4 10 -2 14 7 11 7 -3 13 -11 13 -19z m78 7 c-3 -3 -11 0
-18 7 -9 10 -8 11 6 5 10 -3 15 -9 12 -12z m82 -7 c0 -20 -4 -19 -17 5 -8 15
-8 18 3 14 8 -3 14 -11 14 -19z m78 7 c-3 -3 -11 0 -18 7 -9 10 -8 11 6 5 10
-3 15 -9 12 -12z m82 -7 c0 -20 -4 -19 -17 5 -8 15 -8 18 3 14 8 -3 14 -11 14
-19z m78 7 c-3 -3 -11 0 -18 7 -9 10 -8 11 6 5 10 -3 15 -9 12 -12z m82 -7 c0
-20 -4 -19 -17 5 -8 15 -8 18 3 14 8 -3 14 -11 14 -19z m78 7 c-3 -3 -11 0
-18 7 -9 10 -8 11 6 5 10 -3 15 -9 12 -12z m82 -7 c0 -20 -4 -19 -17 5 -8 15
-8 18 3 14 8 -3 14 -11 14 -19z m78 7 c-3 -3 -11 0 -18 7 -9 10 -8 11 6 5 10
-3 15 -9 12 -12z m82 -7 c0 -20 -4 -19 -17 5 -8 15 -8 18 3 14 8 -3 14 -11 14
-19z m83 11 c-7 -7 -13 -7 -20 0 -6 6 -3 10 10 10 13 0 16 -4 10 -10z m85 4
c-3 -5 -12 -10 -18 -10 -7 0 -6 4 3 10 19 12 23 12 15 0z m75 -10 c-12 -22
-21 -26 -17 -7 2 10 17 26 25 27 1 0 -2 -9 -8 -20z m956 -15 c1 -8 -1 -17 -5
-19 -4 -3 -7 6 -7 19 0 25 8 25 12 0z m221 11 c0 -15 -21 -16 -34 -1 -4 4 -3
5 4 1 6 -3 14 -2 18 4 8 14 12 13 12 -4z m44 0 c14 8 11 -2 -4 -14 -10 -8 -13
-6 -14 11 0 12 1 16 4 9 3 -6 9 -10 14 -6z m73 4 c-15 -15 -54 -21 -54 -8 0 5
6 8 13 5 8 -3 20 -1 28 4 19 12 25 11 13 -1z m59 -3 c4 3 7 1 7 -5 0 -6 -8
-10 -18 -9 -10 0 -19 7 -19 14 0 9 4 10 12 3 7 -5 15 -7 18 -3z m304 -1 c0
-15 -21 -16 -34 -1 -4 4 -3 5 4 1 6 -3 14 -2 18 4 8 14 12 13 12 -4z m113 -1
c-14 -17 -30 -20 -30 -4 0 5 4 8 9 4 5 -3 12 -1 16 5 3 5 9 10 12 10 3 0 0 -7
-7 -15z m-2683 -17 c-3 -8 -6 -5 -6 6 -1 11 2 17 5 13 3 -3 4 -12 1 -19z m160
0 c-3 -8 -6 -5 -6 6 -1 11 2 17 5 13 3 -3 4 -12 1 -19z m160 0 c-3 -8 -6 -5
-6 6 -1 11 2 17 5 13 3 -3 4 -12 1 -19z m160 0 c-3 -8 -6 -5 -6 6 -1 11 2 17
5 13 3 -3 4 -12 1 -19z m160 0 c-3 -8 -6 -5 -6 6 -1 11 2 17 5 13 3 -3 4 -12
1 -19z m1070 15 c-4 -3 -1 -13 6 -22 11 -14 10 -14 -5 -2 -16 12 -16 31 -1 31
4 0 3 -3 0 -7z m40 -12 c0 -11 -5 -18 -9 -15 -4 3 -5 11 -1 19 7 21 12 19 10
-4z m197 11 c3 -5 -1 -9 -9 -9 -8 0 -12 4 -9 9 3 4 7 8 9 8 2 0 6 -4 9 -8z
m383 -9 c0 -9 -4 -10 -14 -2 -7 6 -13 12 -13 14 0 1 6 2 13 2 8 0 14 -6 14
-14z m97 9 c3 -5 -1 -9 -9 -9 -8 0 -12 4 -9 9 3 4 7 8 9 8 2 0 6 -4 9 -8z
m196 3 c0 -2 -6 -8 -13 -14 -10 -8 -14 -7 -14 2 0 8 6 14 14 14 7 0 13 -1 13
-2z m104 -11 c3 -8 2 -12 -4 -9 -6 3 -10 10 -10 16 0 14 7 11 14 -7z m46 6 c0
-4 -7 -7 -15 -6 -23 3 -26 12 -5 13 11 1 20 -2 20 -7z m-940 -20 c0 -5 -2 -10
-4 -10 -3 0 -8 5 -11 10 -3 6 -1 10 4 10 6 0 11 -4 11 -10z m200 6 c0 -2 -7
-7 -16 -10 -8 -3 -12 -2 -9 4 6 10 25 14 25 6z m35 -14 c-3 -3 -11 0 -18 7 -9
10 -8 11 6 5 10 -3 15 -9 12 -12z m480 0 c-3 -3 -11 0 -18 7 -9 10 -8 11 6 5
10 -3 15 -9 12 -12z m-358 -7 c0 -8 -4 -12 -9 -9 -5 3 -6 10 -3 15 9 13 12 11
12 -6z m-502 -4 c-9 -8 -36 -10 -30 -2 2 4 11 8 20 8 8 0 13 -3 10 -6z m965 5
c0 -3 -4 -8 -10 -11 -5 -3 -10 -1 -10 4 0 6 5 11 10 11 6 0 10 -2 10 -4z
m-1459 -43 c13 -16 12 -17 -3 -4 -10 7 -18 15 -18 17 0 8 8 3 21 -13z m34 -3
c3 -5 1 -10 -4 -10 -6 0 -11 5 -11 10 0 6 2 10 4 10 3 0 8 -4 11 -10z m16 -53
c-10 -9 -11 -8 -5 6 3 10 9 15 12 12 3 -3 0 -11 -7 -18z m-59 -4 c0 -4 4 -17
8 -28 6 -16 4 -21 -11 -21 -12 0 -15 4 -9 11 5 6 8 22 5 35 -2 12 -2 20 1 17
3 -3 6 -9 6 -14z m1582 2 c-5 -11 -2 -14 12 -9 11 4 4 -5 -15 -20 -19 -14 -29
-26 -22 -26 7 0 9 -5 5 -11 -9 -16 -24 10 -16 29 4 11 1 13 -8 7 -9 -5 -11 -4
-6 4 4 6 11 9 16 6 5 -3 14 4 20 15 13 23 22 27 14 5z m-1614 -5 c0 -5 -5 -10
-11 -10 -5 0 -7 5 -4 10 3 6 8 10 11 10 2 0 4 -4 4 -10z m-1445 -20 c-3 -5 -1
-10 5 -10 7 0 10 -7 6 -15 -3 -8 4 -21 17 -30 18 -12 19 -15 4 -15 -9 0 -17 5
-17 11 0 5 -5 7 -12 3 -6 -4 -8 -3 -4 4 3 6 2 13 -3 16 -5 4 -8 14 -6 24 5 23
4 22 11 22 3 0 2 -4 -1 -10z m1579 -1 c3 -3 -4 -5 -14 -6 -11 -1 -20 2 -20 7
0 8 25 8 34 -1z m1426 -40 c0 -5 -4 -9 -8 -9 -5 0 -9 7 -9 15 0 8 4 12 9 9 4
-3 8 -9 8 -15z m-2950 5 c0 -8 -19 -13 -24 -6 -3 5 1 9 9 9 8 0 15 -2 15 -3z
m2907 -9 c0 -8 -4 -12 -9 -9 -5 3 -6 10 -3 15 9 13 12 11 12 -6z m-1442 -5
c-3 -5 -12 -10 -18 -10 -7 0 -6 4 3 10 19 12 23 12 15 0z m-40 -39 c-1 -20 3
-42 9 -50 9 -12 8 -12 -11 0 -12 7 -19 16 -15 19 9 6 9 41 0 56 -4 6 -1 11 6
11 8 0 12 -13 11 -36z m62 7 c-3 -8 -6 -5 -6 6 -1 11 2 17 5 13 3 -3 4 -12 1
-19z m-1480 0 c0 -7 -11 -13 -24 -13 -29 0 -29 3 0 15 12 5 22 9 23 9 0 1 1
-5 1 -11z m1463 8 c0 -2 -7 -7 -16 -10 -8 -3 -12 -2 -9 4 6 10 25 14 25 6z
m-80 -26 c0 -5 -2 -10 -4 -10 -3 0 -8 5 -11 10 -3 6 -1 10 4 10 6 0 11 -4 11
-10z m1554 -12 c-3 -5 -10 -6 -15 -3 -5 4 -10 1 -10 -4 -1 -6 -3 -15 -4 -21
-1 -5 -3 -14 -4 -20 0 -5 -9 -2 -19 8 -15 13 -15 19 -5 25 7 5 11 11 9 15 -2
4 9 7 24 7 16 1 26 -3 24 -7z m-1449 -7 c-9 -8 -36 -10 -30 -2 2 4 11 8 20 8
8 0 13 -3 10 -6z m-1425 -15 c0 -2 -7 -7 -16 -10 -8 -3 -12 -2 -9 4 6 10 25
14 25 6z m1436 -11 c-1 -8 -5 -17 -8 -21 -5 -4 -4 16 1 34 3 9 9 -1 7 -13z
m-42 -21 c3 -8 2 -12 -4 -9 -6 3 -10 10 -10 16 0 14 7 11 14 -7z m57 -7 c-10
-9 -11 -8 -5 6 3 10 9 15 12 12 3 -3 0 -11 -7 -18z m-95 -22 c1 -8 -1 -17 -5
-19 -4 -3 -7 6 -7 19 0 25 8 25 12 0z m44 -10 c-10 -12 -10 -15 0 -15 8 0 11
-3 7 -6 -3 -3 -11 -3 -17 1 -8 5 -8 11 1 21 6 8 14 14 16 14 3 0 0 -7 -7 -15z
m-2 -41 c1 -1 -4 -7 -13 -14 -13 -11 -14 -10 -9 5 5 11 4 16 -3 12 -5 -3 -10
0 -10 8 0 12 3 12 16 3 9 -7 17 -13 19 -14z m38 -20 c-1 -8 -6 -17 -12 -21 -5
-4 -6 -4 -2 1 4 5 3 14 -2 21 -7 8 -5 12 4 12 8 0 13 -6 12 -13z m15 -27 c-10
-9 -11 -8 -5 6 3 10 9 15 12 12 3 -3 0 -11 -7 -18z m-46 -7 c-3 -5 -12 -10
-18 -10 -7 0 -6 4 3 10 19 12 23 12 15 0z m1275 -20 c0 -5 -5 -10 -11 -10 -5
0 -7 5 -4 10 3 6 8 10 11 10 2 0 4 -4 4 -10z m-2580 -20 c0 -4 -6 -13 -14 -19
-12 -10 -17 -9 -24 6 -8 15 -6 18 14 19 13 1 24 -2 24 -6z m1320 0 c0 -5 -2
-10 -4 -10 -3 0 -8 5 -11 10 -3 6 -1 10 4 10 6 0 11 -4 11 -10z m-1260 -84 c0
-3 -4 -8 -10 -11 -5 -3 -10 -1 -10 4 0 6 5 11 10 11 6 0 10 -2 10 -4z m1199
-89 c8 -10 7 -14 -2 -14 -8 0 -14 6 -14 14 0 7 1 13 2 13 2 0 8 -6 14 -13z
m-1104 -35 c-3 -3 -11 0 -18 7 -9 10 -8 11 6 5 10 -3 15 -9 12 -12z m2322 -5
c-4 -23 -37 -37 -37 -16 0 5 5 7 12 3 7 -5 9 0 6 14 -4 14 -2 19 8 15 7 -3 12
-10 11 -16z m-44 -2 c-3 -9 -8 -14 -10 -11 -3 3 -2 9 2 15 9 16 15 13 8 -4z
m-1173 -5 c0 -5 -5 -10 -11 -10 -5 0 -7 5 -4 10 3 6 8 10 11 10 2 0 4 -4 4
-10z m54 -6 c3 -8 2 -12 -4 -9 -6 3 -10 10 -10 16 0 14 7 11 14 -7z m-57 -20
c-3 -4 -2 -16 4 -28 9 -19 9 -19 -4 -4 -8 10 -18 14 -23 10 -4 -4 -2 1 5 11 7
9 16 17 19 17 3 0 2 -3 -1 -6z m-1090 -26 c-3 -8 -6 -5 -6 6 -1 11 2 17 5 13
3 -3 4 -12 1 -19z m2293 12 c0 -9 -57 -50 -71 -50 -3 0 -6 6 -6 14 0 8 8 12
21 10 12 -3 15 -1 8 2 -10 5 -7 10 10 19 29 16 38 18 38 5z m-2244 -22 c3 -4
-1 -5 -10 -4 -8 1 -18 5 -22 8 -3 4 1 5 10 4 8 -1 18 -5 22 -8z m1120 -3 c-1
-8 -5 -17 -8 -21 -5 -4 -4 16 1 34 3 9 9 -1 7 -13z m-1133 -41 c28 -33 21 -38
-22 -15 -19 10 -21 15 -10 22 11 7 10 9 -3 9 -10 0 -18 4 -18 8 0 19 27 6 53
-24z m1091 20 c3 -8 2 -12 -4 -9 -6 3 -10 10 -10 16 0 14 7 11 14 -7z m57 -7
c-10 -9 -11 -8 -5 6 3 10 9 15 12 12 3 -3 0 -11 -7 -18z m1007 3 c-7 -10 -14
-17 -17 -15 -4 4 18 35 25 35 2 0 -1 -9 -8 -20z m-1102 -26 c1 -9 0 -13 -4
-10 -3 4 -7 14 -8 22 -1 9 0 13 4 10 3 -4 7 -14 8 -22z m-25 -11 c13 -16 12
-17 -3 -4 -17 13 -22 21 -14 21 2 0 10 -8 17 -17z m69 2 c-10 -12 -10 -15 0
-15 8 0 11 -3 7 -6 -3 -3 -11 -3 -17 1 -8 5 -8 11 1 21 6 8 14 14 16 14 3 0 0
-7 -7 -15z m1044 -19 c-3 -8 -13 -17 -22 -21 -13 -5 -13 -2 3 15 21 24 26 25
19 6z m-1046 -22 c1 -1 -4 -7 -13 -14 -13 -11 -14 -10 -9 5 5 11 4 16 -3 12
-5 -3 -10 0 -10 8 0 12 3 12 16 3 9 -7 17 -13 19 -14z m39 -18 c-1 -6 5 -9 13
-8 8 2 11 0 7 -4 -4 -4 -15 -9 -23 -10 -9 -1 -13 0 -10 3 3 4 1 11 -4 18 -7 8
-5 12 5 12 7 0 13 -5 12 -11z m958 5 c3 -5 2 -12 -3 -15 -5 -3 -9 1 -9 9 0 17
3 19 12 6z m-1075 -22 c0 -5 -4 -9 -8 -9 -5 0 -9 7 -9 15 0 8 4 12 9 9 4 -3 8
-9 8 -15z m40 -1 c0 -4 -4 -8 -9 -8 -6 0 -12 4 -15 8 -3 5 1 9 9 9 8 0 15 -4
15 -9z m-953 -50 c-3 -8 -6 -5 -6 6 -1 11 2 17 5 13 3 -3 4 -12 1 -19z m1028
-9 c-4 -5 -12 -9 -18 -8 -9 0 -8 2 1 6 6 2 9 10 6 15 -4 7 -2 8 5 4 6 -4 9
-12 6 -17z m-998 4 c-4 -3 -1 -13 6 -22 10 -14 10 -14 -4 -4 -9 7 -19 10 -23
6 -4 -4 -4 0 0 10 3 9 11 17 17 17 6 0 7 -3 4 -7z m903 -7 c0 -2 -8 -10 -17
-17 -16 -13 -17 -12 -4 4 13 16 21 21 21 13z m77 -58 c0 -7 -12 -14 -26 -15
l-26 -1 25 14 c14 7 25 13 26 14 0 0 1 -6 1 -12z m-922 -46 c-3 -3 -11 0 -18
7 -9 10 -8 11 6 5 10 -3 15 -9 12 -12z m860 -1 c-1 -9 1 -25 5 -36 6 -16 4
-21 -11 -21 -11 0 -15 4 -9 11 10 12 9 33 -2 51 -4 6 -1 11 6 11 8 0 13 -7 11
-16z m-872 -15 c14 -11 15 -15 3 -25 -11 -9 -17 -6 -30 14 -19 28 -4 34 27 11z
m837 4 c0 -5 -5 -10 -11 -10 -5 0 -7 5 -4 10 3 6 8 10 11 10 2 0 4 -4 4 -10z
m114 -19 c-9 -9 -34 -9 -34 -1 0 5 9 8 20 7 10 -1 17 -3 14 -6z m-39 -51 c-3
-5 -12 -10 -18 -10 -7 0 -6 4 3 10 19 12 23 12 15 0z m-40 -29 c-1 -14 2 -37
7 -51 7 -19 6 -22 -2 -14 -6 6 -12 24 -14 40 -1 16 -5 34 -8 40 -4 6 -1 11 6
11 7 0 12 -11 11 -26z m-38 -8 c1 -22 -1 -24 -8 -10 -6 9 -7 22 -4 27 9 14 10
13 12 -17z m100 5 c-3 -8 -6 -5 -6 6 -1 11 2 17 5 13 3 -3 4 -12 1 -19z m-844
-31 c8 5 8 2 0 -9 -18 -22 -4 -31 16 -10 9 10 13 13 9 7 -4 -7 -5 -14 -2 -17
2 -3 -2 -8 -10 -11 -19 -7 -50 28 -40 44 6 10 9 10 12 1 2 -7 9 -9 15 -5z
m852 -6 c-9 -8 -36 -10 -30 -2 2 4 11 8 20 8 8 0 13 -3 10 -6z m11 -26 c-1 -8
-5 -17 -8 -21 -5 -4 -4 16 1 34 3 9 9 -1 7 -13z m15 -28 c-10 -9 -11 -8 -5 6
3 10 9 15 12 12 3 -3 0 -11 -7 -18z m709 -8 c0 -5 -4 -9 -8 -9 -5 0 -9 7 -9
15 0 8 4 12 9 9 4 -3 8 -9 8 -15z m-804 -15 c1 -9 0 -13 -4 -10 -3 4 -7 14 -8
22 -1 9 0 13 4 10 3 -4 7 -14 8 -22z m-25 -11 c13 -16 12 -17 -3 -4 -17 13
-22 21 -14 21 2 0 10 -8 17 -17z m69 2 c-10 -12 -10 -15 0 -15 8 0 11 -3 7 -6
-3 -3 -11 -3 -17 1 -8 5 -8 11 1 21 6 8 14 14 16 14 3 0 0 -7 -7 -15z m-2 -41
c1 -1 -4 -7 -13 -14 -13 -11 -14 -10 -9 5 5 11 4 16 -3 12 -5 -3 -10 0 -10 8
0 12 3 12 16 3 9 -7 17 -13 19 -14z m762 5 c0 -18 -20 -18 -29 0 -9 16 -8 18
9 14 11 -3 20 -9 20 -14z m-723 -23 c-1 -6 5 -9 13 -8 8 2 11 0 7 -4 -4 -4
-15 -9 -23 -10 -9 -1 -13 0 -10 3 3 4 1 11 -4 18 -7 8 -5 12 5 12 7 0 13 -5
12 -11z m-117 -17 c0 -5 -4 -9 -8 -9 -5 0 -9 7 -9 15 0 8 4 12 9 9 4 -3 8 -9
8 -15z m40 -1 c0 -4 -4 -8 -9 -8 -6 0 -12 4 -15 8 -3 5 1 9 9 9 8 0 15 -4 15
-9z m75 -59 c-4 -5 -12 -9 -18 -8 -9 0 -8 2 1 6 6 2 9 10 6 15 -4 7 -2 8 5 4
6 -4 9 -12 6 -17z m-695 1 c0 -5 -5 -10 -11 -10 -5 0 -7 5 -4 10 3 6 8 10 11
10 2 0 4 -4 4 -10z m600 -4 c0 -2 -8 -10 -17 -17 -16 -13 -17 -12 -4 4 13 16
21 21 21 13z m77 -58 c0 -7 -12 -14 -26 -15 l-26 -1 25 14 c14 7 25 13 26 14
0 0 1 -6 1 -12z m-62 -47 c-1 -9 1 -25 5 -36 6 -16 4 -21 -11 -21 -11 0 -15 4
-9 11 10 12 9 33 -2 51 -4 6 -1 11 6 11 8 0 13 -7 11 -16z m645 8 c0 -5 6 -7
13 -3 6 4 9 4 5 -1 -4 -4 -2 -15 5 -23 8 -11 8 -14 0 -9 -6 4 -19 4 -28 1 -10
-4 -13 -9 -6 -13 6 -4 3 -11 -9 -18 -14 -10 -19 -9 -24 2 -3 9 0 12 10 8 10
-4 12 0 8 11 -4 11 -1 16 10 16 19 0 21 11 4 28 -9 9 -9 12 0 12 7 0 12 -5 12
-11z m-680 -19 c0 -5 -5 -10 -11 -10 -5 0 -7 5 -4 10 3 6 8 10 11 10 2 0 4 -4
4 -10z m-473 -25 c4 -4 3 -5 -4 -2 -6 4 -13 2 -15 -5 -3 -8 -6 -6 -10 4 -7 17
15 19 29 3z m587 6 c-9 -9 -34 -9 -34 -1 0 5 9 8 20 7 10 -1 17 -3 14 -6z
m-39 -51 c-3 -5 -12 -10 -18 -10 -7 0 -6 4 3 10 19 12 23 12 15 0z m-40 -29
c-1 -14 2 -37 7 -51 7 -19 6 -22 -2 -14 -6 6 -12 24 -14 40 -1 16 -5 34 -8 40
-4 6 -1 11 6 11 7 0 12 -11 11 -26z m-38 -8 c1 -22 -1 -24 -8 -10 -6 9 -7 22
-4 27 9 14 10 13 12 -17z m100 5 c-3 -8 -6 -5 -6 6 -1 11 2 17 5 13 3 -3 4
-12 1 -19z m483 -14 c0 -8 -19 -13 -24 -6 -3 5 1 9 9 9 8 0 15 -2 15 -3z
m-475 -23 c-9 -8 -36 -10 -30 -2 2 4 11 8 20 8 8 0 13 -3 10 -6z m495 5 c0 -3
-4 -8 -10 -11 -5 -3 -10 -1 -10 4 0 6 5 11 10 11 6 0 10 -2 10 -4z m-1021 -23
c-3 -21 2 -33 15 -33 15 0 29 -27 18 -34 -5 -3 -14 -1 -22 5 -10 6 -11 9 -2 9
7 0 4 8 -8 20 -12 12 -18 25 -15 30 7 12 15 13 14 3z m537 -8 c-1 -8 -5 -17
-8 -21 -5 -4 -4 16 1 34 3 9 9 -1 7 -13z m451 8 c-4 -3 -2 -12 3 -18 7 -9 6
-16 -5 -25 -10 -9 -15 -9 -15 -1 0 6 5 11 11 11 5 0 7 5 4 10 -4 6 -12 7 -18
3 -7 -4 -6 0 2 10 7 9 16 17 19 17 3 0 2 -3 -1 -7z m-436 -36 c-10 -9 -11 -8
-5 6 3 10 9 15 12 12 3 -3 0 -11 -7 -18z m-95 -23 c1 -9 0 -13 -4 -10 -3 4 -7
14 -8 22 -1 9 0 13 4 10 3 -4 7 -14 8 -22z m504 19 c0 -5 -5 -15 -10 -23 -7
-12 -9 -10 -7 8 1 19 17 33 17 15z m-529 -30 c13 -16 12 -17 -3 -4 -17 13 -22
21 -14 21 2 0 10 -8 17 -17z m69 2 c-10 -12 -10 -15 0 -15 8 0 11 -3 7 -6 -3
-3 -11 -3 -17 1 -8 5 -8 11 1 21 6 8 14 14 16 14 3 0 0 -7 -7 -15z m-2 -41 c1
-1 -4 -7 -13 -14 -13 -11 -14 -10 -9 5 5 11 4 16 -3 12 -5 -3 -10 0 -10 8 0
12 3 12 16 3 9 -7 17 -13 19 -14z m39 -18 c-1 -6 5 -9 13 -8 8 2 11 0 7 -4 -4
-4 -15 -9 -23 -10 -9 -1 -13 0 -10 3 3 4 1 11 -4 18 -7 8 -5 12 5 12 7 0 13
-5 12 -11z m-121 -22 c1 -9 0 -13 -4 -10 -3 4 -7 14 -8 22 -1 9 0 13 4 10 3
-4 7 -14 8 -22z m-296 6 c0 -5 -5 -10 -11 -10 -5 0 -7 5 -4 10 3 6 8 10 11 10
2 0 4 -4 4 -10z m380 -45 c0 -1 -8 -5 -18 -7 -11 -3 -19 0 -19 7 0 7 8 10 19
7 10 -2 18 -6 18 -7z m35 -16 c-4 -5 -12 -9 -18 -8 -9 0 -8 2 1 6 6 2 9 10 6
15 -4 7 -2 8 5 4 6 -4 9 -12 6 -17z m-375 1 c0 -5 -2 -10 -4 -10 -3 0 -8 5
-11 10 -3 6 -1 10 4 10 6 0 11 -4 11 -10z m697 -11 c-2 -9 -9 -24 -16 -33 -7
-9 -10 -16 -5 -16 5 0 1 -5 -9 -11 -14 -8 -22 -8 -30 1 -9 8 -7 9 7 4 13 -5
17 -4 13 3 -4 6 -2 13 5 15 6 2 13 14 15 27 2 15 -1 20 -9 15 -6 -4 -8 -3 -5
3 10 17 37 11 34 -8z m-363 -41 c-5 -7 -2 -9 8 -6 8 4 15 1 15 -6 0 -6 -8 -12
-17 -12 -11 0 -16 7 -15 16 5 21 4 20 11 20 3 0 2 -5 -2 -12z m-277 -25 c-4
-3 -2 -11 3 -18 7 -8 5 -12 -4 -12 -8 0 -12 7 -11 16 5 22 4 21 12 21 3 0 3
-3 0 -7z m240 -35 c1 -10 -3 -18 -9 -18 -6 0 -8 3 -5 7 4 3 2 11 -3 18 -7 8
-6 12 3 12 7 0 14 -9 14 -19z m-37 -8 c0 -5 -5 -10 -11 -10 -5 0 -7 5 -4 10 3
6 8 10 11 10 2 0 4 -4 4 -10z m-184 -25 c-3 -10 1 -15 12 -16 16 -1 16 -2 -1
-6 -9 -2 -15 -9 -11 -14 3 -5 10 -7 15 -4 5 4 9 1 9 -4 0 -14 -17 -14 -25 -1
-4 6 -11 7 -17 4 -7 -4 -8 -2 -4 4 4 7 2 12 -3 12 -6 0 -3 9 7 19 21 24 26 25
18 6z m298 6 c-9 -9 -34 -9 -34 -1 0 5 9 8 20 7 10 -1 17 -3 14 -6z m-78 -10
c-4 -5 0 -11 6 -14 7 -3 3 -4 -9 -4 -17 1 -19 4 -11 14 12 15 22 18 14 4z m39
-41 c-3 -5 -12 -10 -18 -10 -7 0 -6 4 3 10 19 12 23 12 15 0z m-40 -39 c-1
-20 3 -42 9 -50 9 -12 8 -12 -11 0 -12 7 -19 16 -15 19 9 6 9 41 0 56 -4 6 -1
11 6 11 8 0 12 -13 11 -36z m62 7 c-3 -8 -6 -5 -6 6 -1 11 2 17 5 13 3 -3 4
-12 1 -19z m-237 0 c0 -11 -12 -10 -30 2 -12 7 -10 9 8 7 12 0 22 -5 22 -9z
m12 -30 c-7 -7 -12 -8 -12 -2 0 14 12 26 19 19 2 -3 -1 -11 -7 -17z m128 12
c0 -5 -5 -10 -11 -10 -5 0 -7 5 -4 10 3 6 8 10 11 10 2 0 4 -4 4 -10z m-80
-36 c0 -8 -19 -13 -24 -6 -3 5 1 9 9 9 8 0 15 -2 15 -3z m36 -9 c-1 -8 -5 -17
-8 -21 -5 -4 -4 16 1 34 3 9 9 -1 7 -13z m162 -2 c-12 -15 -22 -18 -14 -4 4 5
0 11 -6 14 -7 3 -3 4 9 4 17 -1 19 -4 11 -14z m98 2 c-1 -8 -5 -17 -8 -21 -5
-4 -4 16 1 34 3 9 9 -1 7 -13z m61 7 c8 -5 9 -13 3 -22 -8 -13 -10 -12 -10 3
0 10 -4 15 -10 12 -5 -3 -10 -1 -10 4 0 13 10 14 27 3z m-237 -29 c0 -3 -3 -3
-7 0 -3 4 -11 3 -17 -3 -8 -6 -12 -3 -12 10 0 15 4 16 18 9 10 -5 18 -13 18
-16z m40 13 c0 -2 -7 -7 -16 -10 -8 -3 -12 -2 -9 4 6 10 25 14 25 6z m96 -12
c-1 -8 -6 -17 -10 -21 -4 -4 -7 -3 -6 2 5 22 -1 25 -22 15 -21 -10 -21 -10 -6
3 22 17 46 18 44 1z m-171 -34 c3 -5 2 -10 -4 -10 -5 0 -13 5 -16 10 -3 6 -2
10 4 10 5 0 13 -4 16 -10z m48 -10 c3 -11 1 -18 -4 -14 -5 3 -9 12 -9 20 0 20
7 17 13 -6z m42 -11 c-4 -5 -12 -9 -18 -8 -9 0 -8 2 1 6 6 2 9 10 6 15 -4 7
-2 8 5 4 6 -4 9 -12 6 -17z m-41 -28 c-5 -6 -34 20 -34 30 0 5 8 1 18 -8 10
-10 17 -20 16 -22z m-94 9 c0 -5 -2 -10 -4 -10 -3 0 -8 5 -11 10 -3 6 -1 10 4
10 6 0 11 -4 11 -10z"/>
<path d="M3150 4206 c0 -2 8 -10 18 -17 15 -13 16 -12 3 4 -13 16 -21 21 -21
13z"/>
<path d="M3995 2231 c-3 -5 -2 -12 3 -15 5 -3 9 1 9 9 0 17 -3 19 -12 6z"/>
<path d="M1450 1696 c0 -2 8 -10 18 -17 15 -13 16 -12 3 4 -13 16 -21 21 -21
13z"/>
<path d="M1636 1407 c3 -10 9 -15 12 -12 3 3 0 11 -7 18 -10 9 -11 8 -5 -6z"/>
<path d="M2645 4980 c3 -5 8 -10 11 -10 2 0 4 5 4 10 0 6 -5 10 -11 10 -5 0
-7 -4 -4 -10z"/>
<path d="M2675 4980 c-3 -6 -1 -18 5 -27 9 -16 10 -15 5 4 -5 18 -3 22 9 17 9
-3 16 -4 16 -1 0 10 -30 16 -35 7z"/>
<path d="M2436 4959 c2 -4 -2 -10 -8 -12 -9 -4 -10 -6 -1 -6 6 -1 15 4 18 9 3
6 11 10 17 10 6 0 3 -9 -6 -19 -10 -11 -24 -17 -32 -14 -8 3 -14 0 -14 -6 0
-6 0 -14 0 -18 -1 -13 35 -12 57 2 31 21 20 65 -17 62 -10 -1 -17 -4 -14 -8z
m41 -24 c0 -8 -4 -12 -8 -10 -4 3 -9 -2 -12 -9 -3 -8 -15 -14 -26 -13 -11 0
-17 5 -15 9 3 5 10 6 15 2 6 -3 17 3 25 15 18 25 21 26 21 6z"/>
<path d="M2640 4951 c-8 -6 -18 -7 -22 -5 -16 10 -7 -14 12 -31 13 -12 20 -14
20 -5 0 10 3 10 15 0 9 -7 18 -10 22 -6 3 3 1 6 -6 6 -7 0 -9 5 -5 12 5 8 0 9
-14 6 -12 -4 -25 -1 -29 4 -3 7 -1 8 5 4 7 -4 12 -2 12 4 0 6 5 8 12 4 7 -4 8
-3 4 4 -9 14 -7 14 -26 3z"/>
<path d="M2760 4935 c-7 -9 -20 -13 -29 -10 -13 5 -14 4 -3 -7 10 -10 16 -8
34 10 12 12 20 22 16 22 -3 0 -11 -7 -18 -15z"/>
<path d="M2770 4849 c0 -5 5 -7 10 -4 6 3 10 8 10 11 0 2 -4 4 -10 4 -5 0 -10
-5 -10 -11z"/>
<path d="M2320 4796 c14 -18 13 -19 -5 -12 -16 6 -18 5 -7 -6 10 -10 17 -8 35
12 12 13 15 19 6 12 -12 -9 -19 -9 -29 1 -11 9 -10 7 0 -7z"/>
<path d="M2870 4711 c0 -9 30 -24 36 -18 2 1 -6 8 -16 15 -11 7 -20 8 -20 3z"/>
<path d="M2213 4685 c0 -8 4 -12 9 -9 5 3 6 10 3 15 -9 13 -12 11 -12 -6z"/>
<path d="M2907 4606 c-3 -8 2 -21 12 -30 15 -14 17 -13 18 12 0 15 -1 19 -4 9
-2 -9 -8 -15 -13 -12 -5 3 -7 12 -3 20 3 8 3 15 0 15 -3 0 -7 -6 -10 -14z"/>
<path d="M2976 4553 c-6 -14 -5 -15 5 -6 7 7 10 15 7 18 -3 3 -9 -2 -12 -12z"/>
<path d="M2980 4526 c0 -2 7 -7 16 -10 8 -3 12 -2 9 4 -6 10 -25 14 -25 6z"/>
<path d="M3061 4394 c0 -11 3 -14 6 -6 3 7 2 16 -1 19 -3 4 -6 -2 -5 -13z"/>
<path d="M2011 4328 c-1 -9 -4 -18 -8 -21 -5 -2 -2 -2 5 0 10 2 11 -4 6 -19
-6 -20 -5 -21 10 -9 10 8 13 18 7 25 -4 6 -11 18 -14 26 -4 12 -6 12 -6 -2z"/>
<path d="M3116 4327 c3 -10 9 -15 12 -12 3 3 0 11 -7 18 -10 9 -11 8 -5 -6z"/>
<path d="M3193 4235 c0 -8 4 -12 9 -9 5 3 6 10 3 15 -9 13 -12 11 -12 -6z"/>
<path d="M1894 4198 c-4 -6 -3 -8 2 -5 6 3 16 2 24 -4 12 -7 11 -9 -5 -10
l-20 0 20 -8 c39 -16 43 9 5 29 -13 7 -21 7 -26 -2z"/>
<path d="M3259 4148 c-6 -20 -6 -39 0 -42 4 -3 7 6 7 20 0 20 -4 32 -7 22z"/>
<path d="M1850 4136 c0 -2 8 -10 18 -17 15 -13 16 -12 3 4 -13 16 -21 21 -21
13z"/>
<path d="M3316 4062 c-3 -5 1 -9 9 -9 8 0 12 4 9 9 -3 4 -7 8 -9 8 -2 0 -6 -4
-9 -8z"/>
<path d="M3340 4000 c-9 -6 -10 -10 -3 -10 6 0 15 5 18 10 8 12 4 12 -15 0z"/>
<path d="M1781 3959 c10 -20 0 -26 -17 -9 -7 7 -11 6 -11 -4 0 -8 4 -13 9 -10
4 3 8 0 8 -7 0 -7 8 -5 20 6 25 23 25 31 0 38 -17 4 -18 2 -9 -14z"/>
<path d="M3338 3938 c9 -11 10 -18 2 -23 -8 -5 -8 -11 0 -20 7 -8 9 -19 5 -25
-8 -14 8 -13 22 1 6 6 9 18 6 26 -5 12 -7 12 -14 1 -7 -11 -9 -11 -9 0 0 18
26 43 35 34 5 -4 5 -1 1 6 -6 9 -12 10 -20 3 -9 -7 -17 -7 -26 2 -12 10 -12 9
-2 -5z"/>
<path d="M1673 3810 c-2 -23 13 -35 23 -19 5 8 3 9 -6 4 -9 -5 -10 -2 -5 14 3
11 3 21 -2 21 -5 0 -9 -9 -10 -20z"/>
<path d="M3494 3766 c1 -8 5 -18 8 -22 4 -3 5 1 4 10 -1 8 -5 18 -8 22 -4 3
-5 -1 -4 -10z"/>
<path d="M3534 3682 c4 -3 14 -7 22 -8 9 -1 13 0 10 4 -4 3 -14 7 -22 8 -9 1
-13 0 -10 -4z"/>
<path d="M3510 3663 c1 -5 12 -21 26 -38 16 -19 22 -22 15 -9 -6 12 -7 24 -3
28 3 4 0 11 -8 16 -18 12 -30 13 -30 3z"/>
<path d="M3565 3639 c-4 -6 -4 -13 -1 -16 3 -4 6 -1 6 6 0 7 5 9 12 5 7 -4 8
-3 4 4 -9 15 -13 15 -21 1z"/>
<path d="M1563 3630 c-27 -11 -31 -23 -5 -13 15 6 15 5 3 -11 -8 -9 -20 -15
-28 -12 -11 4 -11 1 -3 -15 6 -11 16 -17 21 -13 6 3 8 8 5 11 -3 4 2 13 12 22
14 13 28 43 20 40 -2 0 -13 -4 -25 -9z"/>
<path d="M3564 3596 c-9 -10 -7 -15 8 -25 10 -6 16 -15 14 -20 -3 -5 4 -17 16
-27 12 -11 18 -13 14 -6 -4 6 -3 12 2 12 5 0 9 6 9 14 0 8 -6 12 -12 10 -7 -3
-18 3 -26 12 -12 15 -12 16 8 10 12 -4 24 -2 28 3 4 7 -1 8 -11 4 -12 -4 -15
-3 -10 5 5 8 1 10 -10 5 -12 -4 -15 -3 -10 5 10 16 -6 15 -20 -2z"/>
<path d="M3633 3512 c-7 -12 -8 -24 -2 -33 7 -11 9 -11 9 -1 0 8 5 10 13 6 9
-5 9 -4 0 6 -6 7 -9 19 -6 26 7 20 0 17 -14 -4z"/>
<path d="M3670 3475 c0 -5 5 -17 10 -25 5 -8 10 -10 10 -5 0 6 -5 17 -10 25
-5 8 -10 11 -10 5z"/>
<path d="M3713 3430 c-1 -10 6 -25 15 -32 15 -12 16 -11 4 4 -8 9 -11 22 -8
27 4 5 3 12 -2 15 -4 2 -8 -4 -9 -14z"/>
<path d="M1367 3336 c-3 -8 -3 -17 0 -20 9 -9 34 15 27 25 -8 13 -21 11 -27
-5z"/>
<path d="M3775 3320 c3 -5 8 -10 11 -10 2 0 4 5 4 10 0 6 -5 10 -11 10 -5 0
-7 -4 -4 -10z"/>
<path d="M3753 3295 c0 -8 4 -12 9 -9 4 3 8 9 8 15 0 5 -4 9 -8 9 -5 0 -9 -7
-9 -15z"/>
<path d="M3835 3270 c-4 -6 -11 -7 -17 -4 -7 4 -8 2 -4 -5 6 -9 11 -9 22 0 14
11 18 19 10 19 -3 0 -8 -5 -11 -10z"/>
<path d="M1256 3222 c-3 -5 1 -9 9 -9 8 0 12 4 9 9 -3 4 -7 8 -9 8 -2 0 -6 -4
-9 -8z"/>
<path d="M3875 3179 c-4 -6 -5 -12 -2 -15 2 -3 7 2 10 11 7 17 1 20 -8 4z"/>
<path d="M3940 3018 c0 -4 5 -8 11 -8 8 0 7 -6 -2 -17 -12 -14 -10 -14 14 1
31 21 35 28 10 19 -10 -4 -14 -2 -10 4 3 5 0 10 -8 10 -8 0 -15 -4 -15 -9z"/>
<path d="M3986 2941 c-3 -4 3 -16 14 -26 15 -14 17 -21 9 -31 -9 -10 -5 -16
15 -25 23 -11 24 -13 9 -24 -16 -12 -12 -16 25 -27 4 -1 13 -8 20 -15 14 -14
32 -9 32 9 0 5 -7 8 -15 5 -17 -7 -30 9 -15 18 5 3 10 12 10 18 0 7 -9 1 -20
-13 -14 -18 -20 -20 -20 -9 0 8 6 21 13 28 10 11 10 13 0 7 -7 -4 -13 -2 -13
3 0 6 -7 11 -15 11 -8 0 -15 5 -15 11 0 5 4 7 10 4 6 -3 7 1 4 9 -3 9 -10 16
-15 16 -5 0 -8 3 -8 8 5 28 -12 44 -25 23z"/>
<path d="M1071 2927 c-8 -10 -7 -14 2 -14 8 0 14 6 14 14 0 7 -1 13 -2 13 -2
0 -8 -6 -14 -13z"/>
<path d="M4035 2931 c-3 -5 -2 -12 3 -15 5 -3 9 1 9 9 0 17 -3 19 -12 6z"/>
<path d="M1106 2913 c2 -6 -2 -14 -9 -16 -7 -2 -9 -7 -6 -11 3 -3 14 4 25 16
10 12 14 18 7 15 -6 -4 -13 -4 -16 0 -2 5 -2 3 -1 -4z"/>
<path d="M4054 2882 c4 -3 14 -7 22 -8 9 -1 13 0 10 4 -4 3 -14 7 -22 8 -9 1
-13 0 -10 -4z"/>
<path d="M1034 2838 c-4 -7 -4 -10 1 -6 4 4 15 2 24 -5 14 -11 14 -10 2 6 -16
20 -18 21 -27 5z"/>
<path d="M1035 2810 c27 -12 43 -12 25 0 -8 5 -22 9 -30 9 -10 0 -8 -3 5 -9z"/>
<path d="M4106 2741 c-7 -11 25 -38 46 -38 10 0 14 6 10 16 -4 10 -7 11 -10 3
-4 -13 -23 -17 -21 -4 5 28 -12 44 -25 23z"/>
<path d="M4175 2741 c-3 -5 -2 -12 3 -15 5 -3 9 1 9 9 0 17 -3 19 -12 6z"/>
<path d="M4146 2674 c-3 -8 -2 -12 4 -9 16 10 11 -11 -9 -36 -21 -27 -22 -69
-2 -93 12 -14 11 -19 -3 -34 -9 -10 -13 -22 -9 -26 5 -4 9 -16 9 -27 2 -30 3
-30 24 -19 16 8 18 15 10 29 -5 10 -6 21 -3 25 3 3 1 6 -6 6 -8 0 -11 -6 -7
-16 3 -8 2 -12 -4 -9 -13 8 -13 32 0 40 6 4 17 2 25 -5 9 -8 15 -8 20 0 4 6 1
9 -6 8 -6 -2 -14 3 -16 10 -3 6 0 12 6 12 6 0 11 5 11 12 0 9 -3 9 -12 0 -18
-18 -32 -14 -17 5 10 11 10 14 2 9 -8 -4 -13 -1 -13 9 0 9 4 14 9 10 18 -10
23 16 7 34 -9 10 -13 20 -10 24 10 10 13 57 4 57 -4 0 -11 -7 -14 -16z m24
-87 c0 -6 -3 -7 -7 -4 -3 4 -12 2 -18 -3 -9 -8 -12 -4 -10 12 1 13 3 25 4 27
2 7 31 -22 31 -32z m0 -142 c0 -2 -6 -5 -13 -8 -8 -3 -14 1 -14 8 0 7 6 11 14
8 7 -3 13 -6 13 -8z"/>
<path d="M4173 2637 c-3 -5 0 -14 6 -20 9 -9 10 -7 5 7 -5 13 -4 17 4 12 6 -3
13 -3 16 2 3 5 -2 9 -10 9 -8 0 -17 -4 -21 -10z"/>
<path d="M914 2528 l-19 -23 23 19 c21 18 27 26 19 26 -2 0 -12 -10 -23 -22z"/>
<path d="M953 2521 c1 -14 5 -17 13 -11 6 6 14 7 17 3 4 -3 7 -2 7 4 0 6 -7
14 -16 17 -22 9 -23 8 -21 -13z"/>
<path d="M933 2423 c4 -3 1 -13 -6 -22 -11 -14 -10 -14 5 -2 16 12 16 31 1 31
-4 0 -3 -3 0 -7z"/>
<path d="M968 2398 c-13 -13 -19 -20 -14 -15 16 11 28 8 20 -5 -5 -10 -4 -10
6 -1 13 12 23 43 15 43 -2 0 -14 -10 -27 -22z"/>
<path d="M990 2364 c-14 -9 -17 -13 -6 -10 14 5 17 2 12 -9 -3 -9 -2 -14 3
-11 7 5 23 47 18 46 -1 -1 -13 -8 -27 -16z"/>
<path d="M4060 2280 c0 -6 7 -10 15 -10 8 0 15 2 15 4 0 2 -7 6 -15 10 -8 3
-15 1 -15 -4z"/>
<path d="M3966 2154 c-3 -9 -11 -12 -18 -8 -9 4 -8 2 1 -7 10 -11 15 -11 18
-1 3 6 9 10 14 7 5 -4 6 1 3 9 -8 20 -10 20 -18 0z"/>
<path d="M1130 2120 c0 -5 5 -10 11 -10 5 0 7 5 4 10 -3 6 -8 10 -11 10 -2 0
-4 -4 -4 -10z"/>
<path d="M1160 2107 c-10 -20 -10 -20 3 -5 10 13 16 15 25 6 8 -8 12 -9 12 -1
0 22 -30 22 -40 0z"/>
<path d="M3986 2118 c3 -4 9 -8 15 -8 5 0 9 4 9 8 0 5 -7 9 -15 9 -8 0 -12 -4
-9 -9z"/>
<path d="M3863 2012 c-8 -5 -5 -15 8 -32 11 -14 18 -18 17 -10 -2 8 -7 18 -13
22 -5 4 -6 10 -2 14 3 4 13 2 20 -4 10 -9 14 -9 14 1 0 14 -27 19 -44 9z"/>
<path d="M1260 1916 c0 -2 7 -7 16 -10 8 -3 12 -2 9 4 -6 10 -25 14 -25 6z"/>
<path d="M3820 1896 c0 -2 7 -7 16 -10 8 -3 12 -2 9 4 -6 10 -25 14 -25 6z"/>
<path d="M1276 1881 c3 -4 15 -6 27 -6 11 0 22 -6 25 -13 2 -8 -3 -10 -15 -6
-14 5 -15 4 -3 -4 10 -8 18 -8 27 0 18 14 -4 34 -39 34 -15 0 -25 -2 -22 -5z"/>
<path d="M3816 1862 c-3 -5 1 -9 9 -9 8 0 12 4 9 9 -3 4 -7 8 -9 8 -2 0 -6 -4
-9 -8z"/>
<path d="M1363 1765 c0 -8 4 -12 9 -9 5 3 6 10 3 15 -9 13 -12 11 -12 -6z"/>
<path d="M3722 1718 c-15 -15 -15 -28 -1 -28 5 0 8 4 4 9 -3 6 3 14 12 20 10
6 13 11 8 11 -6 0 -16 -5 -23 -12z"/>
<path d="M3643 1680 c2 -8 0 -23 -5 -34 -7 -12 -7 -16 0 -12 6 3 12 3 15 -1 2
-5 2 -2 0 6 -2 7 2 20 8 28 7 7 9 16 5 20 -3 3 -6 0 -6 -8 0 -12 -2 -11 -11 1
-9 13 -10 13 -6 0z"/>
<path d="M3670 1649 c0 -5 5 -7 10 -4 6 3 10 8 10 11 0 2 -4 4 -10 4 -5 0 -10
-5 -10 -11z"/>
<path d="M1439 1633 c-13 -16 -12 -17 4 -4 9 7 17 15 17 17 0 8 -8 3 -21 -13z"/>
<path d="M3610 1601 c-8 -15 -6 -19 5 -17 25 4 39 23 21 29 -10 4 -20 -1 -26
-12z"/>
<path d="M1504 1588 c-10 -12 -14 -18 -7 -15 6 4 13 2 15 -5 3 -7 10 -8 20 -2
14 7 14 12 4 26 -12 17 -14 16 -32 -4z"/>
<path d="M1534 1549 c-3 -6 -1 -15 6 -19 7 -4 10 -13 6 -18 -4 -6 2 -16 13
-22 14 -7 22 -7 26 0 4 6 3 10 -2 9 -21 -4 -32 2 -27 15 3 8 0 17 -5 21 -6 3
-9 11 -6 16 4 5 4 9 1 9 -3 0 -8 -5 -12 -11z"/>
<path d="M3587 1499 c7 -7 15 -10 18 -7 3 3 -2 9 -12 12 -14 6 -15 5 -6 -5z"/>
<path d="M1558 1463 c7 -3 16 -2 19 1 4 3 -2 6 -13 5 -11 0 -14 -3 -6 -6z"/>
<path d="M3480 1415 c-16 -17 -19 -25 -9 -25 19 0 49 20 31 20 -7 0 -10 5 -7
10 4 7 12 7 25 0 13 -7 21 -7 26 2 4 7 4 10 -1 6 -4 -4 -15 -3 -25 2 -13 7
-23 3 -40 -15z"/>
<path d="M3510 1390 c-9 -6 -10 -10 -3 -10 6 0 15 5 18 10 8 12 4 12 -15 0z"/>
<path d="M3481 1364 c0 -11 3 -14 6 -6 3 7 2 16 -1 19 -3 4 -6 -2 -5 -13z"/>
<path d="M1610 1365 c0 -5 5 -17 10 -25 5 -8 10 -10 10 -5 0 6 -5 17 -10 25
-5 8 -10 11 -10 5z"/>
<path d="M1650 1359 c-13 -9 -12 -10 2 -6 21 7 35 -11 32 -41 -1 -12 1 -20 4
-17 25 24 -11 83 -38 64z"/>
<path d="M3433 1331 c-9 -15 -9 -22 0 -29 9 -8 13 -3 13 19 2 34 2 34 -13 10z"/>
<path d="M1662 1320 c0 -14 2 -19 5 -12 2 6 2 18 0 25 -3 6 -5 1 -5 -13z"/>
<path d="M1690 1241 c0 -6 3 -10 8 -9 12 4 50 -25 48 -36 -2 -6 -1 -8 1 -3 3
4 9 5 14 1 5 -3 9 -2 9 3 0 4 -15 17 -33 28 -45 27 -47 28 -47 16z"/>
<path d="M3340 1193 c-8 -10 -11 -15 -6 -11 5 4 17 3 27 -2 12 -7 20 -6 25 2
4 7 4 10 -1 6 -4 -4 -13 -1 -20 8 -10 14 -12 14 -25 -3z"/>
<path d="M1765 1171 c-3 -5 0 -13 6 -17 8 -5 9 -3 4 6 -6 9 -1 10 16 5 19 -5
21 -4 9 4 -19 13 -27 14 -35 2z"/>
<path d="M1875 970 c-3 -6 1 -7 9 -4 18 7 21 14 7 14 -6 0 -13 -4 -16 -10z"/>
<path d="M3219 953 c-13 -16 -12 -17 4 -4 16 13 21 21 13 21 -2 0 -10 -8 -17
-17z"/>
<path d="M1933 948 c3 -9 3 -19 -1 -21 -4 -2 -1 -2 6 -1 6 2 12 -1 12 -6 0 -6
-4 -10 -8 -10 -4 0 -8 -10 -9 -22 0 -13 1 -17 4 -10 8 21 22 13 18 -10 -4 -16
-2 -19 7 -10 17 17 28 15 28 -4 0 -8 4 -13 9 -10 5 4 12 0 14 -6 4 -10 6 -10
6 -1 1 7 -15 24 -34 39 -19 14 -32 30 -29 35 3 5 -2 19 -12 31 -10 14 -14 16
-11 6z"/>
<path d="M1990 759 c0 -5 5 -7 10 -4 6 3 10 8 10 11 0 2 -4 4 -10 4 -5 0 -10
-5 -10 -11z"/>
<path d="M3095 760 c3 -5 8 -10 11 -10 2 0 4 5 4 10 0 6 -5 10 -11 10 -5 0 -7
-4 -4 -10z"/>
<path d="M2015 751 c-3 -5 0 -13 6 -17 7 -4 9 -3 5 4 -3 5 0 13 6 15 9 4 10 6
1 6 -6 1 -14 -3 -18 -8z"/>
<path d="M3059 713 c-13 -16 -12 -17 3 -5 9 8 23 10 29 6 8 -4 9 -3 5 4 -10
17 -21 15 -37 -5z"/>
<path d="M3000 672 c-8 -9 -14 -22 -12 -28 1 -7 -7 -19 -20 -28 -12 -9 -18
-19 -14 -23 4 -4 11 -1 16 7 6 8 10 11 10 6 0 -5 6 -3 14 4 8 6 12 19 9 28 -6
15 -5 16 13 2 17 -14 18 -14 6 2 -8 9 -11 22 -7 28 9 14 27 2 19 -13 -4 -7 -3
-8 1 -4 15 14 13 33 -4 34 -9 1 -23 -6 -31 -15z"/>
<path d="M2115 591 c-3 -5 -2 -12 3 -15 5 -3 9 1 9 9 0 17 -3 19 -12 6z"/>
<path d="M2975 580 c3 -5 8 -10 11 -10 2 0 4 5 4 10 0 6 -5 10 -11 10 -5 0 -7
-4 -4 -10z"/>
<path d="M2155 560 c-3 -5 -1 -10 4 -10 6 0 11 5 11 10 0 6 -2 10 -4 10 -3 0
-8 -4 -11 -10z"/>
<path d="M2950 540 c0 -5 9 -8 20 -7 21 1 18 10 -5 13 -8 1 -15 -2 -15 -6z"/>
<path d="M2173 525 c0 -7 6 -11 14 -8 7 3 13 6 13 8 0 2 -6 5 -13 8 -8 3 -14
-1 -14 -8z"/>
<path d="M2930 499 c0 -5 5 -7 10 -4 6 3 10 8 10 11 0 2 -4 4 -10 4 -5 0 -10
-5 -10 -11z"/>
<path d="M2186 482 c-3 -5 1 -9 9 -9 8 0 12 4 9 9 -3 4 -7 8 -9 8 -2 0 -6 -4
-9 -8z"/>
<path d="M2908 484 c-4 -3 -12 -6 -20 -8 -19 -2 -69 -42 -62 -49 3 -3 1 -14
-5 -25 -8 -16 -7 -21 6 -26 9 -4 18 -4 21 -1 3 3 0 5 -6 5 -7 0 -12 8 -12 18
0 14 2 15 10 2 7 -11 10 -11 10 -2 0 7 5 10 12 6 7 -4 8 -3 4 5 -4 6 -11 9
-15 7 -4 -3 -8 1 -8 9 0 11 5 12 21 2 27 -14 48 -18 40 -6 -3 5 -9 7 -14 4 -5
-3 -12 0 -16 6 -9 15 34 52 49 42 6 -3 7 -1 3 5 -8 14 -10 14 -18 6z m-28 -18
c0 -2 -8 -10 -17 -17 -16 -13 -17 -12 -4 4 13 16 21 21 21 13z"/>
<path d="M2225 469 c-4 -6 -4 -13 -1 -16 3 -4 6 -1 6 6 0 7 5 9 10 6 8 -5 7
-12 -2 -23 -12 -15 -11 -16 5 -3 13 10 15 17 6 27 -14 17 -16 17 -24 3z"/>
<path d="M2233 407 c0 -8 6 -14 14 -14 9 0 10 4 2 14 -6 7 -12 13 -14 13 -1 0
-2 -6 -2 -13z"/>
<path d="M2255 371 c-3 -5 -2 -12 3 -15 5 -3 9 1 9 9 0 17 -3 19 -12 6z"/>
<path d="M2275 329 c-4 -6 -5 -12 -2 -15 2 -3 7 2 10 11 7 17 1 20 -8 4z"/>
<path d="M2800 320 c-12 -7 -10 -9 7 -7 12 0 19 5 17 9 -6 10 -6 10 -24 -2z"/>
<path d="M2317 289 c7 -7 15 -10 18 -7 3 3 -2 9 -12 12 -14 6 -15 5 -6 -5z"/>
<path d="M2396 251 c-3 -5 0 -11 7 -14 8 -3 14 1 14 9 0 16 -13 19 -21 5z"/>
<path d="M2654 193 c-41 -30 -64 -38 -64 -25 0 4 5 13 12 20 21 21 -4 13 -37
-12 -31 -24 -31 -24 -44 -4 -7 11 -18 17 -26 14 -9 -3 -12 0 -8 10 3 7 0 14
-7 14 -6 0 -9 -4 -6 -9 3 -5 -1 -14 -9 -21 -8 -7 -15 -18 -15 -24 0 -8 3 -8 8
0 14 21 39 22 55 3 9 -10 13 -19 7 -19 -5 0 -14 8 -19 18 -6 9 -11 12 -11 7 0
-6 6 -17 13 -24 10 -11 8 -12 -8 -7 -14 4 -24 -1 -34 -17 -14 -22 -14 -22 7
-4 20 18 21 18 41 -2 20 -20 22 -19 25 18 1 8 6 16 12 18 11 4 13 -25 2 -43
-4 -5 2 -10 12 -10 14 0 16 4 9 17 -14 27 -10 36 6 15 8 -11 15 -14 15 -8 0 7
5 12 10 12 7 0 7 -6 1 -18 -7 -14 -6 -19 4 -19 8 0 12 4 9 8 -3 5 2 19 11 32
8 13 12 27 8 30 -3 4 -2 7 4 7 16 0 23 -13 13 -25 -6 -8 -2 -11 15 -11 l25 0
-21 22 c-13 14 -17 24 -10 29 6 3 11 2 11 -4 0 -6 7 -8 15 -5 11 5 14 2 9 -12
-4 -11 -4 -16 0 -12 4 3 9 14 11 25 1 10 8 17 14 16 6 -2 11 2 11 7 0 6 -4 10
-9 10 -6 0 -13 -4 -16 -10 -3 -5 -14 -10 -23 -10 -13 0 -13 2 4 15 34 26 9 16
-32 -12z m-42 -38 c11 2 15 -2 11 -12 -4 -11 -8 -11 -13 -3 -6 9 -9 9 -15 1
-5 -9 -10 -9 -21 0 -17 14 -8 34 9 21 7 -5 20 -8 29 -7z m-82 -35 c0 -5 -2
-10 -4 -10 -3 0 -8 5 -11 10 -3 6 -1 10 4 10 6 0 11 -4 11 -10z"/>
<path d="M2630 109 c0 -5 5 -7 10 -4 6 3 10 8 10 11 0 2 -4 4 -10 4 -5 0 -10
-5 -10 -11z"/>
<path d="M2490 100 c0 -5 5 -10 11 -10 5 0 7 5 4 10 -3 6 -8 10 -11 10 -2 0
-4 -4 -4 -10z"/>
<path d="M2505 60 c-3 -6 1 -7 9 -4 18 7 21 14 7 14 -6 0 -13 -4 -16 -10z"/>
<path d="M2613 55 c0 -8 4 -12 9 -9 5 3 6 10 3 15 -9 13 -12 11 -12 -6z"/>
</g>
</svg>
